<svg width="626" height="546" viewBox="0 0 626 546" fill="none" xmlns="http://www.w3.org/2000/svg">
<path d="M188.068 217.194H203.825" stroke="#182d5b" stroke-width="10" stroke-linecap="round"/>
<path d="M175.266 215.224C157.658 215.224 131.955 214.574 128.011 212.935C124.067 209.975 121.112 208.341 119.148 206.701C118.158 206.036 117.183 205.711 115.194 204.392" stroke="#182d5b" stroke-width="10" stroke-linecap="round"/>
<path d="M111.255 201.437C109.295 200.128 105.366 198.168 101.422 196.356C97.1968 194.415 94.1983 190.624 90.914 187.498C87.5083 184.255 85.3352 178.157 83.5231 173.878C83.0307 172.888 82.3808 171.913 81.721 170.924C81.0612 169.934 80.4112 168.959 77.772 165.985" stroke="#182d5b" stroke-width="10" stroke-linecap="round"/>
<path d="M68.9087 165H76.787" stroke="#182d5b" stroke-width="10" stroke-linecap="round"/>
<path d="M65.9544 165C65.6294 166.96 64.3196 170.889 63.8223 177.285C63.6598 178.777 63.3348 179.752 63.1674 182.042C63 184.331 63 187.906 63 191.589" stroke="#182d5b" stroke-width="10" stroke-linecap="round"/>
<path d="M63.9849 197.498C65.9446 200.758 69.2239 207.326 72.6707 210.453C76.2998 213.745 79.7218 218.159 83.6659 221.941C87.4315 225.551 93.5088 225.722 97.6154 226.874C102.229 228.169 106.311 229.326 111.235 230.976C116.077 232.598 120.748 233.6 125.027 234.915C129.001 236.136 132.9 237.54 138.312 238.692C145.566 240.236 149.642 240.494 154.566 241.809C159.736 243.189 164.414 243.448 168.52 244.601C173.134 245.895 177.216 246.403 181.977 248.535C185.966 250.321 189.368 252.627 191.998 256.571C194.627 260.515 195.947 265.094 196.764 269.698C196.931 271.013 196.931 272.637 196.931 274.312" stroke="#182d5b" stroke-width="10" stroke-linecap="round"/>
<path d="M194.962 283.175C193.002 283.5 189.073 286.109 185.129 288.256C184.139 288.749 183.164 289.399 182.174 289.896C181.185 290.393 180.21 290.718 179.205 292.038" stroke="#182d5b" stroke-width="10" stroke-linecap="round"/>
<path d="M178.22 296.962C178.22 300.872 178.87 308.76 180.023 313.029C181.494 318.482 182.809 322.547 184.287 326.491C185.084 328.619 186.749 330.435 188.383 331.912C191.85 335.045 196.912 334.049 201.673 334.546C206.161 335.015 210.699 336.019 215.46 336.678C220.547 338.323 225.48 338.648 227.933 339.14C229.41 339.308 231.36 339.308 234.353 337.338" stroke="#182d5b" stroke-width="10" stroke-linecap="round"/>
<path d="M234.353 333.399C234.028 331.439 231.419 328.16 228.292 324.876C227.47 324.211 226.495 323.886 225.83 323.231C225.165 322.576 224.84 321.601 224.505 320.597" stroke="#182d5b" stroke-width="10" stroke-linecap="round"/>
<path d="M224.505 315.673C225.155 315.023 225.805 314.373 226.465 313.551C227.125 312.728 227.775 311.753 230.06 311.251C232.344 310.749 236.244 310.749 240.262 310.749" stroke="#182d5b" stroke-width="10" stroke-linecap="round"/>
<path d="M245.186 310.749C246.161 310.749 247.136 310.749 248.126 310.911C249.115 311.074 250.09 311.399 251.08 311.891C252.07 312.384 253.045 313.034 254.049 313.703" stroke="#182d5b" stroke-width="10" stroke-linecap="round"/>
<path d="M258.973 322.566C260.283 324.526 262.893 327.805 264.714 332.39C267.994 340.641 263.247 345.197 263.237 353.228C263.231 358.399 267.817 361.288 270.126 364.735C272.561 368.369 277.664 368.517 282.751 369.176C285.858 370.151 288.832 370.821 291.289 370.984C292.446 371.146 293.421 371.471 296.395 371.806" stroke="#182d5b" stroke-width="10" stroke-linecap="round"/>
<path d="M314.121 375.745C316.396 377.055 323.615 378.365 328.873 378.862C334.457 379.684 338.731 380.009 343.296 380.502C346.885 380.669 353.06 380.669 359.422 379.684" stroke="#182d5b" stroke-width="10" stroke-linecap="round"/>
<path d="M349.574 364.912C350.874 366.862 352.174 368.812 353.331 370.142C354.488 371.471 355.463 372.121 356.128 372.943C356.792 373.766 357.117 374.741 357.452 375.745" stroke="#182d5b" stroke-width="10" stroke-linecap="round"/>
<path d="M366.315 360.973C366.315 362.273 366.315 363.573 366.478 364.73C366.64 365.887 366.965 366.862 367.133 368.502C367.3 370.142 367.3 372.416 367.3 374.76" stroke="#182d5b" stroke-width="10" stroke-linecap="round"/>
<path d="M362.376 378.699C367.615 378.374 374.804 376.415 379.762 374.44C381.412 370.831 382.072 366.902 381.747 363.46C381.422 361.968 380.772 360.993 380.102 359.988" stroke="#182d5b" stroke-width="10" stroke-linecap="round"/>
<path d="M379.117 358.019C376.173 355.074 372.244 351.795 368.137 349.983C363.358 347.874 356.841 347.186 351.558 345.389C350.568 344.892 349.593 344.567 348.604 344.237C347.614 343.907 346.639 343.582 345.635 342.262" stroke="#182d5b" stroke-width="10" stroke-linecap="round"/>
<path d="M345.635 339.308C347.269 336.038 348.589 331.774 348.101 328.987C346.639 327.175 344.66 325.531 343.02 323.566C342.355 322.576 342.03 321.601 341.695 318.627" stroke="#182d5b" stroke-width="10" stroke-linecap="round"/>
<path d="M343.665 312.719C344.315 312.069 345.625 311.084 348.077 310.099C354.334 307.586 359.402 313.034 363.346 315.501C367.29 317.308 370.245 319.277 372.209 320.587C373.199 321.247 374.174 321.897 376.163 323.551" stroke="#182d5b" stroke-width="10" stroke-linecap="round"/>
<path d="M383.057 327.49C384.357 328.14 385.676 329.45 387.311 331.09C394.52 338.32 412.581 331.764 416.525 330.45C417.514 330.12 418.489 329.795 419.479 329.465C420.469 329.135 421.444 328.81 422.448 328.475" stroke="#182d5b" stroke-width="10" stroke-linecap="round"/>
<path d="M427.372 327.49C427.697 329.45 430.307 333.379 434.738 336.506C440.566 340.618 445.079 340.942 451.475 343.892C456.059 346.006 461.485 347.501 466.744 348.496C471.964 349.483 475.607 351.775 479.551 354.887C483.347 357.882 487.425 359.653 492.186 360.968C496.646 362.2 501.862 363.593 511.045 364.09C514.014 364.577 519.243 364.912 525.807 364.425C528.146 363.937 528.471 362.962 528.805 361.958" stroke="#182d5b" stroke-width="10" stroke-linecap="round"/>
<path d="M523.881 352.11C525.181 352.76 526.481 353.41 527.638 354.232C528.796 355.055 529.771 356.03 530.435 357.019C531.1 358.009 531.425 358.984 531.76 360.973" stroke="#182d5b" stroke-width="10" stroke-linecap="round"/>
<path d="M533.729 360.973C538.929 360.973 542.908 360.648 545.202 359.668C547.332 358.759 547.841 356.059 548.334 353.12C548.501 348.23 547.526 344.242 545.562 342.439C544.572 341.612 543.597 340.962 540.623 339.308" stroke="#182d5b" stroke-width="10" stroke-linecap="round"/>
<path d="M539.638 339.308C539.963 339.308 540.288 339.308 540.943 339.795C541.598 340.283 542.573 341.258 545.547 344.232" stroke="#182d5b" stroke-width="10" stroke-linecap="round"/>
<path d="M545.547 341.277C545.547 339.977 545.547 336.383 545.059 331.789C544.876 330.06 543.597 329.795 542.282 329.465C531.146 326.67 515.038 327.825 506.19 327.328C501.118 327.043 495.362 325.521 490.413 324.541C486.223 323.711 482.54 320.932 478.758 318.475C477.281 316.677 475.962 314.698 474.977 311.108C474.642 308.494 474.642 304.269 474.642 299.916" stroke="#182d5b" stroke-width="10" stroke-linecap="round"/>
<path d="M475.627 295.977C476.602 294.342 480.531 292.373 487.725 291.22C499.439 291.053 508.115 291.378 513.979 291.87C518.869 292.038 527.643 292.038 536.684 292.038" stroke="#182d5b" stroke-width="10" stroke-linecap="round"/>
<path d="M536.684 294.008C538.968 293.023 543.558 291.723 546.522 288.114C549.421 284.584 550.786 280.24 552.598 276.296C553.74 274.331 554.735 272.352 555.39 270.387C555.72 269.398 556.045 268.423 556.38 267.418" stroke="#182d5b" stroke-width="10" stroke-linecap="round"/>
<path d="M556.379 266.433C556.379 264.149 557.029 259.56 558.344 255.453C559.852 250.744 560.969 246.757 560.978 234.639C560.983 228.733 564.253 220.539 560.978 217.737C554.465 212.164 530.795 223.418 526.688 225.067C521.809 227.027 517.008 228.342 513.388 231.134C510.105 233.667 507.16 237.855 503.216 239.839C501.251 240.494 499.272 241.479 497.307 242.626C496.317 243.123 495.342 243.448 492.368 244.768" stroke="#182d5b" stroke-width="10" stroke-linecap="round"/>
<path d="M541.608 211.285C541.608 210.635 541.283 209.325 540.303 207.523C538.673 206.046 537.019 204.401 535.709 202.437C535.049 201.447 534.399 200.472 532.745 198.483" stroke="#182d5b" stroke-width="10" stroke-linecap="round"/>
<path d="M533.729 195.529C534.379 194.879 536.014 193.569 538.471 191.767C539.628 190.939 540.603 190.289 541.43 189.467C542.258 188.645 542.908 187.67 543.577 186.665" stroke="#182d5b" stroke-width="10" stroke-linecap="round"/>
<path d="M543.577 186.665C542.927 186.665 526.993 186.665 502.871 186.503C494.348 186.34 493.373 186.015 488.971 185.848C484.569 185.681 476.769 185.681 466.764 184.696" stroke="#182d5b" stroke-width="10" stroke-linecap="round"/>
<path d="M457.901 183.711C456.926 183.711 455.951 183.711 454.799 183.549C453.646 183.386 452.346 183.061 449.564 182.894C446.782 182.726 442.558 182.726 438.205 182.726" stroke="#182d5b" stroke-width="10" stroke-linecap="round"/>
<path d="M421.463 180.757C420.488 180.757 419.513 180.757 418.199 180.757C416.884 180.757 415.259 180.757 413.935 180.594C412.61 180.432 411.635 180.107 410.631 179.772" stroke="#182d5b" stroke-width="10" stroke-linecap="round"/>
<path d="M402.752 178.787C391.989 178.787 376.183 180.087 372.076 181.737C366.335 182.726 361.401 183.051 354.399 183.544C348.372 183.711 337.323 183.711 325.939 183.711" stroke="#182d5b" stroke-width="10" stroke-linecap="round"/>
<path d="M318.06 183.711C316.101 183.386 310.222 182.726 304.456 181.746C300.019 180.432 295.755 179.447 291.668 178.955C289.206 178.787 285.956 178.787 282.608 178.787" stroke="#182d5b" stroke-width="10" stroke-linecap="round"/>
<path d="M277.684 178.787C277.359 178.787 277.034 178.787 276.379 179.112C275.724 179.437 274.749 180.087 273.76 180.747C272.77 181.407 271.795 182.057 270.791 182.726" stroke="#182d5b" stroke-width="10" stroke-linecap="round"/>
<path d="M262.912 182.726L261.927 186.665" stroke="#182d5b" stroke-width="10" stroke-linecap="round"/>
<path d="M250.11 187.65C249.46 187.975 248.81 188.3 247.825 188.955C246.84 189.61 245.541 190.585 244.708 191.575C243.876 192.564 243.551 193.539 241.247 194.544" stroke="#182d5b" stroke-width="10" stroke-linecap="round"/>
<path d="M237.308 194.544C236.008 195.844 235.013 197.488 234.033 199.128C231.951 202.612 224.86 198.818 220.581 195.868C218.77 194.62 216.312 194.544 214.017 195.031C211.865 195.489 211.378 198.473 210.398 200.113C209.42 201.749 206.139 201.437 203.515 202.087C202.515 202.737 202.19 204.037 202.023 205.357C201.855 206.676 201.855 207.976 201.855 209.316" stroke="#182d5b" stroke-width="10" stroke-linecap="round"/>
<path d="M543.358 265.818C541.353 265.618 537.114 265.213 535.195 265.612C534.552 265.746 535.074 266.811 535.579 267.323C537.647 269.416 541.928 269.245 544.56 269.854C545.152 269.991 545.768 269.657 546.176 269.155C546.585 268.652 546.785 267.853 547.188 267.241C547.59 266.63 548.19 266.23 548.807 265.818" stroke="#182d5b" stroke-width="10" stroke-linecap="round"/>
</svg>
