<svg width="533" height="358" viewBox="0 0 533 358" fill="none" xmlns="http://www.w3.org/2000/svg">
<path d="M59.9212 122.878C59.6338 122.878 58.3363 122.878 55.158 122.662C50.2243 122.328 43.559 121.428 37.396 121.067C31.9908 120.75 28.8775 119.543 24.6651 119.682C21.7983 119.777 29.1388 123.592 32.4804 126.929C34.144 128.591 34.5202 130.706 34.4528 133.967C34.3861 137.19 32.352 139.85 31.6227 142.677C30.9398 145.326 28.8688 148.122 28.2789 149.291C26.2018 153.407 34.5115 146.537 37.1239 145.018C40.9031 142.91 44.6562 140.598 47.9369 138.487C48.7359 137.977 49.7416 137.403 50.7779 136.375" stroke="#182d5b" stroke-width="9" stroke-linecap="round"/>
<path d="M35.1036 151.614C34.6726 152.624 32.9353 155.228 31.2634 157.701C29.8177 159.839 27.5713 162.769 25.1701 166.189C23.5571 168.486 22.0505 170.763 20.4504 173.59C19.2841 175.652 19.142 178.452 18.9222 181.789C18.784 183.886 18.1232 186.141 17.7618 188.252C17.4045 190.341 17.2524 192.672 16.8192 194.711C16.2703 197.296 16.0943 200.805 15.8744 204.717C15.6057 209.497 15.7982 216.479 16.0181 219.74C16.1833 222.191 16.817 224.168 17.1784 226.132C17.5877 228.356 17.6878 231.274 18.121 233.462C18.4974 235.362 18.846 237.665 19.4272 240.352C19.9429 242.735 20.1522 245.067 20.7334 247.031C21.4328 249.393 21.8937 252.321 22.475 254.722C22.9888 256.844 23.9227 259.435 24.652 261.76C25.5712 264.691 27.1185 267.856 27.7716 269.599C28.986 272.842 31.7598 276.999 32.9941 279.104C34.4109 281.52 36.4011 283.965 37.7116 285.781C39.1202 287.732 40.3196 289.913 42.0634 292.238C43.6865 294.402 44.8216 296.156 46.056 297.972C47.585 300.221 49.0275 301.964 50.3381 303.56C51.6443 305.016 52.9504 305.596 53.819 306.103C54.2566 306.323 54.6877 306.466 56.0026 307.485" stroke="#182d5b" stroke-width="9" stroke-linecap="round"/>
<path d="M44.2469 286.151C45.2571 286.726 47.286 288.467 49.0298 289.63C50.7735 290.792 52.5107 291.95 54.2545 292.751C56.1224 293.61 57.7355 294.998 59.4792 296.089C61.0586 297.077 63.2476 297.61 65.1394 298.773C66.86 299.83 68.9077 300.371 71.1609 300.591C73.0392 300.774 74.7159 301.677 76.821 301.897C78.836 302.107 81.0988 302.983 83.3519 303.203C85.2302 303.386 87.1943 304.002 89.0861 304.797C89.5236 305.017 89.9547 305.16 90.3923 305.306C90.8298 305.452 91.2609 305.596 93.0112 305.744" stroke="#182d5b" stroke-width="9" stroke-linecap="round"/>
<path d="M51.6487 294.859V295.294" stroke="#182d5b" stroke-width="9" stroke-linecap="round"/>
<path d="M52.9548 296.6L54.261 298.342" stroke="#182d5b" stroke-width="9" stroke-linecap="round"/>
<path d="M16.817 216.052C17.3961 214.751 17.9752 212.439 18.6283 210.399C19.2926 208.324 20.8749 206.482 21.676 204.377C22.4739 202.281 26.5089 197.226 28.7142 193.926C29.7708 192.344 31.4637 190.808 32.9941 189.136C33.3577 188.771 33.7887 188.483 34.2263 188.12C34.6638 187.756 35.0949 187.325 35.9744 186.01" stroke="#182d5b" stroke-width="9" stroke-linecap="round"/>
<path d="M66.452 123.313C63.844 121.576 61.2447 118.977 58.985 117.007C56.4971 114.838 55.7152 112.437 55.2058 110.622C55.0667 110.126 55.1318 109.537 55.3473 109.17C56.4778 107.24 60.4871 106.916 63.032 105.974C64.3645 105.48 66.7263 104.887 71.7791 102.724C80.7233 98.8931 87.9126 94.5904 90.9582 92.5592C93.4594 90.8912 95.9021 89.936 98.2271 88.9934C100.505 88.0697 102.581 87.3236 104.686 86.7424C106.526 86.2344 108.241 85.582 109.985 84.6394C111.624 83.7536 113.753 83.4051 116.148 82.5365C120.733 80.8733 122.897 79.6346 124.788 78.472C126.645 77.3314 128.557 75.4286 130.882 73.7567C132.917 72.2928 134.8 71.3621 136.616 70.2714C138.897 68.901 142.054 68.6016 144.451 68.0204C147.236 67.345 150.178 67.2955 155.471 67.0756C156.574 67.0038 157.005 66.8601 160.891 66.7861C164.777 66.712 172.105 66.712 179.655 66.712" stroke="#182d5b" stroke-width="9" stroke-linecap="round"/>
<path d="M198.377 68.0182C200.68 68.0182 205.334 68.3055 207.511 68.815C209.664 69.3187 211.717 70.0471 213.681 70.6284C215.91 71.2882 218.248 72.0761 220.573 72.8772C222.946 73.6948 225.502 74.4011 227.903 74.9823C229.758 75.4313 231.745 76.1427 233.637 76.7239C235.394 77.2637 237.405 77.5969 239.369 78.4633C241.511 79.4082 243.501 80.3486 245.826 81.3674C248.021 82.3291 250.18 83.109 251.924 83.7621C253.781 84.4577 255.405 85.2859 257.148 85.939C259.259 86.7296 261.065 88.6211 262.809 89.7117C264.435 90.7289 266.577 91.6688 268.469 93.1209C269.968 94.2717 272.237 95.004 274.129 96.3145C275.852 97.5079 277.61 98.9225 278.992 100.523C280.351 102.096 283.122 103.276 285.303 104.659C285.743 105.022 286.03 105.453 286.394 105.747C286.757 106.041 287.189 106.185 288.068 106.768" stroke="#182d5b" stroke-width="9" stroke-linecap="round"/>
<path d="M294.599 111.122C295.465 111.41 296.915 112.855 298.367 114.237C299.732 115.537 300.398 117.932 301.922 119.824C303.263 121.488 304.03 123.305 305.334 125.048C306.501 126.61 307.365 128.817 308.527 130.924C310.007 133.606 310.56 135.496 311.142 137.239C311.739 139.031 312.737 140.72 313.391 142.464C314.086 144.321 314.914 145.945 315.857 147.689C316.077 148.126 316.221 148.557 316.438 148.995C316.656 149.433 316.943 149.864 317.239 150.308" stroke="#182d5b" stroke-width="9" stroke-linecap="round"/>
<path d="M140.469 113.735C144.962 114.314 147.279 114.605 149.676 115.11C152.332 115.67 154.532 116.634 156.572 117.216C159.477 118.043 163.536 119.247 165.713 119.828C168.111 120.468 170.067 121.859 172.244 122.945C174.569 124.615 176.598 125.778 177.981 127.153C178.344 127.519 178.775 127.807 179.655 128.538" stroke="#182d5b" stroke-width="9" stroke-linecap="round"/>
<path d="M188.363 137.681C189.081 138.835 191.114 141.156 192.566 143.261C194.15 145.557 195.181 148.993 195.834 150.737C196.574 152.713 197.07 154.94 197.793 157.119C198.804 160.167 198.377 164.066 198.738 168.07C199.055 171.585 198.956 174.394 199.173 179.288C199.365 183.603 199.247 191.653 199.176 196.085C199.059 203.273 198.525 207.623 198.233 210.886C197.506 214.45 197.362 216.192 197.144 217.35C197.07 217.933 197.07 218.508 197.07 219.1" stroke="#182d5b" stroke-width="9" stroke-linecap="round"/>
<path d="M49.0363 215.617C49.9027 216.775 54.2262 219.083 59.3943 221.776C64.5639 224.469 67.0181 225.335 69.2734 226.569C72.0973 228.115 73.845 228.966 75.5888 229.909C77.2761 230.821 79.9319 232.153 82.1916 233.464C84.2164 234.638 86.6108 235.636 88.938 236.729C92.4952 238.4 95.3187 239.416 98.1531 240.069C98.8106 240.286 99.3853 240.574 99.8969 240.794C100.408 241.014 100.84 241.157 101.284 241.305" stroke="#182d5b" stroke-width="9" stroke-linecap="round"/>
<path d="M114.345 246.53C115.495 247.253 120.415 247.836 123.624 248.198C127.092 248.588 130.011 248.994 132.693 249.576C136.077 250.309 139.868 250.449 144.227 250.954C148.064 251.398 151.197 252.042 157.064 252.262C158.76 252.326 162.639 252.626 169.014 252.769C178.5 252.983 183.991 253.784 189.865 254.004C196.167 254.239 204.899 254.654 207.076 254.874C207.661 254.933 208.234 255.09 214.924 255.164C221.614 255.238 234.401 255.238 241.204 255.166C249.752 255.076 252.932 254.515 256.778 254.295C259.771 254.124 263.242 253.644 266.213 253.425C267.735 253.209 269.05 253.061 270.136 252.989C270.648 252.917 271.079 252.774 272.394 252.626" stroke="#182d5b" stroke-width="9" stroke-linecap="round"/>
<path d="M102.154 243.482C104.166 244.344 108.794 245.794 115.386 247.462C118.386 248.123 120.685 248.411 122.228 248.703C123.772 248.994 124.49 249.282 125.23 249.578" stroke="#182d5b" stroke-width="9" stroke-linecap="round"/>
<path d="M274.571 250.884C275.145 250.884 277.166 250.597 280.281 250.018C282.705 249.567 288.599 248.424 296.504 247.192C300.559 246.56 302.427 246.095 305.889 245.664C312.864 244.795 317.814 243.482 319.691 243.267C326.158 242.524 329.274 241.453 332.321 240.583C334.716 239.898 337.111 239.999 339.723 239.638C344.631 238.959 349.302 238.258 351.627 237.752C357.673 236.439 367.44 233.329 370.275 232.961C372.878 232.623 375.426 231.727 377.461 231.293C380.054 230.742 384.978 229.994 388.635 229.478C392.803 228.89 398.649 228.827 402.923 228.607C406.92 228.401 412.147 227.956 416.492 227.736C417.519 227.664 418.094 227.521 419.899 227.447C421.704 227.373 424.721 227.373 427.83 227.373" stroke="#182d5b" stroke-width="9" stroke-linecap="round"/>
<path d="M288.068 97.1896C288.212 97.1896 288.355 97.1896 294.751 97.1896C301.147 97.1896 313.791 97.1896 320.592 97.1177C327.97 97.0398 329.134 96.6105 334.747 96.3928C339.781 96.1975 349.267 96.3188 354.44 96.3906C362.367 96.5007 366.43 97.0415 369.62 97.2614C371.856 97.4156 374.407 98.3477 376.59 98.929C379.314 99.6541 382.531 100.089 384.791 100.599C386.858 101.065 389.498 101.108 391.829 101.541C394.325 102.005 396.612 102.414 398.939 102.776C402.106 103.268 406.173 103.285 410.473 104.08C414.293 104.786 416.936 104.879 419.546 105.46C422.439 106.104 425.348 106.62 428.182 106.912C430.856 107.187 433.62 108.362 436.093 108.943C438.868 109.595 441.754 110.539 443.931 111.12C444.514 111.266 445.089 111.41 446.175 111.484C447.261 111.558 448.842 111.558 450.47 111.558" stroke="#182d5b" stroke-width="9" stroke-linecap="round"/>
<path d="M456.13 112.864C458.29 112.72 462.653 112.141 465.263 110.837C467.695 109.622 470.481 108.954 473.102 107.933C475.588 106.965 478.318 105.471 480.939 104.16C483.264 103.141 485.293 102.275 487.181 101.618C487.762 101.544 488.48 101.544 489.22 101.544" stroke="#182d5b" stroke-width="9" stroke-linecap="round"/>
<path d="M490.091 101.544C490.67 103.281 490.962 109.041 490.529 113.001C490.237 115.663 489.656 118.507 489.223 120.766C488.699 123.495 487.339 126.352 486.467 128.312C485.196 131.163 484.292 132.883 482.117 137.59C480.906 140.21 480.225 142.027 479.644 143.77C479.063 145.514 478.484 147.251 477.902 148.995C477.321 150.739 476.742 152.763 476.233 155.088C476.159 156.247 476.015 157.27 475.797 159C475.723 160.3 475.723 162.455 476.159 165.111" stroke="#182d5b" stroke-width="9" stroke-linecap="round"/>
<path d="M477.465 169.465C478.044 170.332 478.623 172.069 479.204 173.813C479.785 175.556 480.364 177.293 481.017 179.399C481.624 181.355 482.541 182.954 483.123 185.059C483.732 187.267 483.847 189.92 484.357 192.889C484.431 193.978 484.431 195.415 484.503 196.37C484.575 197.326 484.718 197.757 484.866 199.072" stroke="#182d5b" stroke-width="9" stroke-linecap="round"/>
<path d="M484.866 203.426C484.866 205.882 484.292 209.365 483.562 211.256C482.862 213.074 481.244 214.737 479.217 216.551C475.193 220.151 473.555 221.129 471.811 222.144C470.065 223.159 468.33 223.741 466.586 225.045C465.025 226.213 463.105 226.789 461.074 227.442C457.636 228.548 454.981 228.966 452.295 229.909C449.98 230.721 447.867 230.708 445.4 230.928C444.814 230.999 444.383 231.143 442.365 231.217C440.347 231.291 436.755 231.291 433.054 231.291" stroke="#182d5b" stroke-width="9" stroke-linecap="round"/>
<path d="M91.2695 305.308C92.8544 305.308 95.6191 305.452 107.407 305.67C118.763 305.879 141.035 305.744 152.723 305.672C166.01 305.59 168.326 305.021 170.864 304.801C173.588 304.565 177.312 304.002 180.225 303.569C183.98 303.01 187.483 302.844 190.311 302.624C193.012 302.414 196.191 301.973 199.38 301.753C201.756 301.589 204.315 300.667 207.074 300.158C209.693 299.94 211.286 299.504 213.093 299.287C214.181 299.213 215.618 299.213 217.099 299.213" stroke="#182d5b" stroke-width="9" stroke-linecap="round"/>
<path d="M217.534 304.438C218.109 304.438 226.595 304.438 239.506 304.509C247.006 304.551 251.608 305.308 255.041 305.67C257.724 305.952 261.483 306.179 265.123 306.54C267.992 306.825 270.356 306.758 273.167 306.976C279.264 307.448 283.853 307.194 288.46 307.411C299.963 307.485 308.092 307.198 309.032 306.763C309.542 306.614 310.116 306.614 311.144 306.179" stroke="#182d5b" stroke-width="9" stroke-linecap="round"/>
<path d="M308.967 302.26C307.238 301.111 303.751 298.203 302.007 297.473C301.138 297.184 299.976 296.892 296.445 296.674C293.632 296.6 288.747 296.6 283.714 296.6" stroke="#182d5b" stroke-width="9" stroke-linecap="round"/>
<path d="M285.891 296.6C286.466 296.6 292.078 295.595 300.42 294.071C306.896 292.888 313.591 291.524 318.095 290.581C321.181 289.935 324.632 288.911 327.963 288.402C332.569 287.697 340.394 287.892 345.891 287.531C350.173 287.25 359.682 287.022 365.988 287.383C372.089 287.733 376.131 287.892 380.57 288.254C388.204 288.472 391.091 288.763 397.67 289.125C401.776 289.199 409.247 289.199 417.816 289.634" stroke="#182d5b" stroke-width="9" stroke-linecap="round"/>
<path d="M423.04 288.328C423.907 288.184 425.644 287.605 427.388 286.663C429.026 285.777 431.443 285.716 433.483 285.282C435.281 284.9 436.964 284.122 438.708 283.541C440.452 282.96 442.189 282.38 444.294 282.089C446.291 281.812 448.136 280.639 450.39 280.058C451.332 279.768 452.207 279.476 453.076 279.115C453.514 278.897 453.945 278.61 454.389 278.314" stroke="#182d5b" stroke-width="9" stroke-linecap="round"/>
<path d="M453.083 275.701C455.542 274.548 457.863 272.514 459.535 270.557C461.059 268.452 462.657 266.706 463.238 266.055C463.388 265.692 463.245 265.261 462.226 264.817" stroke="#182d5b" stroke-width="7" stroke-linecap="round"/>
<path d="M458.307 264.817C456.579 264.237 453.091 263.658 450.044 263.367C448.407 263.21 453.649 261.481 456.988 260.395C460.303 259.317 462.505 258.146 464.396 257.417C464.834 257.271 465.265 257.127 465.703 256.982C466.14 256.836 466.571 256.692 467.451 256.109" stroke="#182d5b" stroke-width="7" stroke-linecap="round"/>
<path d="M457.001 233.904C458.73 233.904 462.217 234.191 463.817 235.277C464.568 235.787 464.546 236.947 464.764 237.887C465.009 238.946 464.551 239.995 463.9 240.72C463.105 241.157 462.374 241.736 461.723 242.461C461.359 242.755 460.928 242.899 459.613 243.918" stroke="#182d5b" stroke-width="7" stroke-linecap="round"/>
<path d="M459.178 244.353C462.343 244.353 468.173 244.784 468.752 245.653C469.906 247.384 470.202 249.856 470.283 252.76C469.636 253.636 468.761 254.219 467.893 254.798C467.455 255.09 467.024 255.377 465.709 256.544" stroke="#182d5b" stroke-width="7" stroke-linecap="round"/>
<path d="M484.431 233.033C482.689 236.494 482.833 241.301 483.266 242.098C484.862 243.334 486.312 244.78 488.63 246.523C489.216 246.961 489.647 247.392 491.397 247.836" stroke="#182d5b" stroke-width="7" stroke-linecap="round"/>
<path d="M495.751 231.291C495.751 233.163 496.326 236.943 497.127 239.696C498.148 243.206 499.948 246.077 501.479 248.193C501.781 248.611 502.273 248.846 501.849 248.994C498.562 250.14 496.056 248.707 493.872 248.346C493.294 248.25 492.573 248.272 492.131 248.487C490.509 249.278 489.229 251.023 487.485 251.753C485.743 252.481 484.004 253.636 481.827 254.726C480.669 255.09 479.502 255.382 477.338 255.599C475.749 255.673 473.163 255.673 470.498 255.673" stroke="#182d5b" stroke-width="7" stroke-linecap="round"/>
<path d="M500.105 249.578C501.843 248.855 503.867 247.409 506.338 244.943C507.859 243.424 508.23 241.314 508.811 239.498C509.51 237.314 509.536 235.218 509.54 233.113C509.545 230.967 505.792 227.399 502.365 224.188C500.463 222.405 497.362 222.009 494.889 220.557C492.421 219.684 490.1 218.813 488.356 218.232C487.919 218.086 487.488 217.942 487.043 217.794" stroke="#182d5b" stroke-width="7" stroke-linecap="round"/>
<path d="M379.936 198.637C380.511 199.216 382.827 200.082 384.863 200.883C387.324 201.852 389.071 202.407 390.886 203.422C393.224 204.728 395.166 206.613 396.91 207.414C398.654 208.503 399.96 209.23 400.829 209.591C401.266 209.809 401.697 210.096 402.577 210.392" stroke="#182d5b" stroke-width="7" stroke-linecap="round"/>
<path d="M439.585 206.474C440.016 205.32 441.179 202.999 442.84 200.319C447.562 195.737 450.453 194.004 456.254 190.738C457.432 190.077 457.863 189.789 459.178 189.058" stroke="#182d5b" stroke-width="7" stroke-linecap="round"/>
<path d="M392.998 151.179C395.01 151.179 397.052 151.179 398.791 151.035C400.029 150.933 400.831 150.02 401.771 149.01C404.452 146.131 403.883 143.211 404.458 141.034C405.36 137.617 410.257 141.304 413.233 141.384C415.055 139.719 416.213 137.69 417.519 135.154C417.955 134.211 418.53 132.918 419.557 130.715" stroke="#182d5b" stroke-width="7" stroke-linecap="round"/>
<path d="M456.13 142.035C459.309 137.115 463.663 133.049 467.934 129.357C469.957 127.608 473.476 125.107 476.833 121.979C486.895 110.983 488.054 109.385 488.996 108.516C489.364 108.079 489.508 107.648 489.656 106.768" stroke="#182d5b" stroke-width="7" stroke-linecap="round"/>
<path d="M321.593 105.027C322.747 105.027 325.068 105.314 326.812 105.895C328.555 106.477 332.591 107.918 335.519 109.015C337.694 110.247 340.307 111.41 342.05 112.424C342.488 112.716 342.919 113.003 343.363 113.299" stroke="#182d5b" stroke-width="7" stroke-linecap="round"/>
<path d="M334.22 165.111C332.918 161.641 332.043 157.866 331.681 155.903C330.794 151.082 328.281 141.487 327.256 138.125C326.556 135.833 326.095 132.622 325.876 128.264C325.705 124.882 325.077 122.599 324.931 120.851C324.904 120.526 325.503 120.414 325.941 120.483C327.834 120.785 329.997 122.434 333.192 123.816C338.279 126.017 345.235 130.419 349.082 132.594C351.798 134.129 355.397 135.644 357.217 136.878C357.644 137.168 357.87 137.673 358.019 138.182C358.167 138.691 358.167 139.266 357.951 139.706C356.88 141.892 350.512 144.622 347.288 147.182C345.547 148.565 344.095 150.299 342.571 152.043C341.191 153.643 338.591 155.951 337.342 158.787C337.268 159.586 337.268 160.592 336.832 161.628" stroke="#182d5b" stroke-width="7" stroke-linecap="round"/>
<path d="M337.703 177.302C336.98 177.733 335.822 179.758 334.731 182.011C334.291 182.92 334.22 184.691 334.435 186.722C334.551 187.809 336.675 187.752 338.567 188.257C339.039 188.383 339.436 188.762 339.73 189.197C341.461 191.762 340.603 195.584 340.751 196.309C340.918 197.13 339.157 197.326 338.65 198.195C337.751 199.734 338.717 201.245 338.145 201.898C335.273 205.174 332.483 201.541 331.973 201.538C329.982 201.53 336.24 205.011 338.132 206.18C340.062 207.373 341.9 208.79 344.515 209.952C345.1 210.244 345.531 210.532 346.041 210.751C346.55 210.971 347.125 211.115 348.152 211.698" stroke="#182d5b" stroke-width="7" stroke-linecap="round"/>
</svg>
