<svg width="626" height="546" viewBox="0 0 626 546" fill="none" xmlns="http://www.w3.org/2000/svg">
<path d="M162.853 205.76C160.975 205.492 157.202 204.416 153.287 203.335C149.779 202.366 146.141 200.367 142.623 198.614C139.324 196.97 136.15 194.165 132.64 191.602C127.617 187.935 125.349 184.724 122.648 181.481C120.399 178.78 120.215 175.008 119.806 170.421C119.183 163.424 120.199 152.612 121.555 148.288C122.835 144.209 125.592 139.398 128.029 135.329C130.031 131.986 132.344 128.856 135.579 124.673C139.503 119.601 142.595 117.245 145.166 114.411C146.451 112.994 148.004 111.844 148.68 110.229C148.999 109.467 148.554 108.613 148.016 107.933C145.686 104.99 141.818 103.48 138.575 101.452C135.45 99.4969 132.636 95.9336 130.34 92.6827C129.839 91.9725 128.863 91.869 128.049 92.1321C124.231 93.3668 122.385 98.055 119.41 100.626C116.829 102.855 115.357 106.152 113.604 109.395C111.957 112.442 110.774 115.868 109.418 119.111C108.099 122.264 106.726 125.584 105.102 128.694C103.378 131.996 99.7139 133.957 96.0663 137.596C93.368 140.288 92.6858 144.207 91.4713 148.122C90.1998 152.22 89.1718 156.887 88.4997 163.211C86.6566 180.554 89.7062 183.882 90.7871 187.125C91.9485 190.609 92.4105 196.011 93.0826 201.149C94.2742 210.258 92.4105 218.391 94.0218 223.561C95.1647 227.228 99.1471 229.224 103.325 233.811C106.233 237.004 108.863 239.75 111.025 242.993C113.187 246.236 115.341 249.467 117.503 252.843C120.043 256.811 121.284 261.337 122.632 265.256C124.68 271.208 125.608 276.445 126.28 282.781C127.635 295.556 125.073 298.858 123.32 302.1C121.567 305.343 118.871 308.574 115.904 311.683C113.19 314.526 110.24 316.946 107.131 319.242C104.052 321.514 101.333 324.233 98.8961 327.201C96.2798 330.386 95.1149 335.018 93.4955 338.67C91.7843 342.529 92.4105 356.783 91.6049 365.657C91.071 371.538 89.4471 375.778 88.2325 379.021C86.8558 382.697 85.933 393.785 85.261 403.421C84.1412 419.475 83.7792 422.74 83.3704 426.655C83.0058 430.145 81.3502 433.266 80.4028 438.917C79.2515 445.786 80.7996 451.354 82.1437 453.508C84.8795 457.892 89.69 458.107 96.5521 459.726C113.002 463.609 124.166 459.192 131.263 457.581C135.009 456.73 135.858 451.921 136.806 447.609C138.664 439.151 134.255 435.727 131.96 432.752C129.739 429.873 125.624 428.699 122.381 426.274C119.406 424.384 117.519 422.222 116.304 420.744C115.891 419.801 115.891 418.465 115.891 417.088" stroke="#182d5b" stroke-width="10" stroke-linecap="round"/>
<path d="M115.892 417.088C115.892 414.943 116.96 410.093 118.317 405.769C119.672 401.447 121.284 397.672 122.766 394.296C124.861 389.521 128.021 386.336 130.458 382.421C131.535 380.669 132.62 379.041 133.563 377.426C133.972 376.612 134.239 375.81 134.514 374.175" stroke="#182d5b" stroke-width="10" stroke-linecap="round"/>
<path d="M134.514 374.175C138.53 374.175 148.781 373.106 154.469 370.811C157.987 367.705 160.683 364.475 162.173 361.232C162.578 360.418 163.112 359.617 163.663 358.791" stroke="#182d5b" stroke-width="10" stroke-linecap="round"/>
<path d="M164.473 358.791C165.55 362.289 166.092 371.406 166.764 378.474C167.278 383.874 167.712 389.251 168.384 396.401C169.323 406.39 169.056 414.109 170.266 416.129C172.535 419.915 175.792 422.206 179.707 425.711C182.812 428.492 186.318 430.302 189.561 433.003C192.446 435.405 196.034 437.59 199.277 439.751C202.402 441.835 205.751 442.723 208.993 443.804C212.478 444.965 216.277 446.496 219.653 447.852C223.425 449.368 227.337 450.01 231.527 451.091C235.399 452.09 240.292 452.974 259.939 453.391C266.595 453.532 269.716 450.026 273.092 447.597C277.513 444.417 279.708 440.585 281.736 437.343C282.954 434.1 284.031 430.335 284.173 422.112C284.039 420.335 283.772 419.534 282.687 418.708" stroke="#182d5b" stroke-width="10" stroke-linecap="round"/>
<path d="M281.878 415.469C280.266 412.505 276.501 410.352 270.833 409.667C269.473 409.534 268.404 409.267 266.785 409.129C265.166 408.991 263.028 408.991 260.826 408.991" stroke="#182d5b" stroke-width="10" stroke-linecap="round"/>
<path d="M260.016 421.946C266.485 424.643 270.25 426.254 274.307 429.893C275.125 430.845 275.659 431.646 275.934 432.727C276.21 433.808 276.21 435.144 276.21 436.521" stroke="#182d5b" stroke-width="10" stroke-linecap="round"/>
<path d="M252.729 432.472C253.798 437.282 254.883 441.63 255.692 444.998C255.968 446.496 255.968 447.565 256.101 448.65C256.235 449.735 256.502 450.804 256.777 452.714" stroke="#182d5b" stroke-width="10" stroke-linecap="round"/>
<path d="M243.013 415.469C240.6 415.469 235.742 414.934 231.426 413.72C225.46 412.041 221.167 410.352 217.252 406.846C214.18 404.095 212.52 400.911 211.439 397.668C210.051 393.505 211.694 387.956 213.05 384.713C214.405 381.473 216.018 378.239 217.904 374.997C219.864 371.628 222.22 368.523 224.515 365.28C227.005 361.763 229.507 358.807 231.535 355.564C232.754 352.054 233.831 348.281 235.584 345.038C235.993 344.224 236.26 343.423 236.535 341.787" stroke="#182d5b" stroke-width="10" stroke-linecap="round"/>
<path d="M236.535 360.41C239.474 361.22 247.045 360.685 250.96 358.932C254.239 357.464 266.655 357.171 275.25 356.366C279.038 356.011 282.671 353.674 286.715 352.451C290.735 352.313 294.015 352.046 297.233 351.641C299.65 351.504 303.658 351.504 307.787 351.504" stroke="#182d5b" stroke-width="10" stroke-linecap="round"/>
<path d="M306.168 351.504C308.856 351.236 312.63 350.16 316.812 348.407C321.386 346.489 329.05 344.767 346.053 339.379C352.78 337.247 357.162 336.395 371.158 336.387C376.603 338.006 379.032 339.083 380.647 340.026C381.461 340.435 382.263 340.702 384.708 341.787" stroke="#182d5b" stroke-width="10" stroke-linecap="round"/>
<path d="M386.327 343.407C387.671 345.828 389.825 349.058 393.46 352.297C400.241 358.337 402.505 360.944 406.42 364.175C409.8 366.612 412.229 367.964 413.844 368.636C414.658 369.041 415.46 369.576 417.905 370.126" stroke="#182d5b" stroke-width="10" stroke-linecap="round"/>
<path d="M423.573 371.746C427.071 373.09 430.309 375.778 432.605 379.154C435.24 383.03 436.787 386.838 439.082 390.223C441.23 393.39 445.143 394.951 448.661 396.838C451.971 398.613 455.669 399.81 459.454 400.89C463.993 402.187 468.349 403.048 474.158 404.129C478.159 404.874 481.854 406.287 485.769 407.368C489.951 408.182 494.275 408.449 498.299 408.854C501.254 408.991 506.064 408.991 511.019 408.991" stroke="#182d5b" stroke-width="10" stroke-linecap="round"/>
<path d="M506.161 390.369C507.772 392.247 509.934 396.02 510.882 400.069C511.019 402.222 511.286 404.125 511.691 405.874C511.829 406.821 511.829 407.89 511.829 408.991" stroke="#182d5b" stroke-width="10" stroke-linecap="round"/>
<path d="M528.023 388.749C528.023 393.032 528.29 401.154 528.027 403.174C526.16 404.927 523.715 406.554 521.695 407.902C520.744 408.449 519.942 408.716 517.497 410.611" stroke="#182d5b" stroke-width="10" stroke-linecap="round"/>
<path d="M515.068 409.801C517.213 409.534 522.598 408.457 526.525 407.376C530.52 406.276 533.14 403.34 535.974 400.769C537.188 399.291 538.273 397.664 539.35 396.049C539.893 395.235 540.427 394.433 541.787 391.988" stroke="#182d5b" stroke-width="10" stroke-linecap="round"/>
<path d="M541.787 390.369C541.787 388.765 541.787 386.336 541.52 383.373C541.29 380.825 539.366 379.308 537.617 378.365C536.67 377.956 535.601 377.689 534.65 377.418C533.699 377.146 532.897 376.879 531.261 375.794" stroke="#182d5b" stroke-width="10" stroke-linecap="round"/>
<path d="M528.832 374.175C526.687 373.64 517.561 370.952 510.902 368.782C506.373 367.307 502.404 366.629 498.886 365.005C497.271 363.665 495.643 362.572 493.493 361.232C492.145 360.159 490.275 358.289 487.538 355.552" stroke="#182d5b" stroke-width="10" stroke-linecap="round"/>
<path d="M481.87 353.123C481.069 352.046 477.838 350.969 474.595 349.083C471.349 347.194 468.122 345.577 464.879 343.415C461.508 341.167 458.406 338.289 455.835 335.322C453.013 332.065 451.378 328.848 449.625 325.606C447.928 322.468 446.519 319.132 444.766 315.889C443.119 312.842 441.937 309.416 440.046 305.906C437.141 300.512 433.84 298.08 431.811 294.838C430.593 291.595 429.783 289.166 429.245 287.55C428.974 286.737 428.706 285.935 428.431 282.68" stroke="#182d5b" stroke-width="10" stroke-linecap="round"/>
<path d="M430.05 281.061C431.654 281.061 443.702 281.061 461.24 280.927C470.87 280.854 474.567 278.097 477.81 277.016C481.142 275.906 483.749 272.98 486.716 271.081C490.271 268.807 493.19 265.693 496.433 263.928C499.943 261.369 502.647 257.596 503.594 253.952C503.732 252.738 503.732 251.135 503.732 249.483" stroke="#182d5b" stroke-width="10" stroke-linecap="round"/>
<path d="M503.732 248.673C502.93 247.329 500.769 244.641 498.882 241.398C496.993 238.152 496.445 234.39 495.773 230.738C495.06 226.864 494.825 216.107 494.153 208.877C493.749 204.958 492.137 201.727 489.17 198.618C488.356 197.938 487.554 197.404 486.729 196.853" stroke="#182d5b" stroke-width="10" stroke-linecap="round"/>
<path d="M484.3 195.234C481.879 194.157 478.114 193.08 473.923 191.999C470.24 191.049 466.503 189.307 463.26 187.951C461.644 187.412 460.017 186.603 458.402 185.659C457.588 185.25 456.786 184.983 454.341 183.898" stroke="#182d5b" stroke-width="10" stroke-linecap="round"/>
<path d="M440.576 177.421C443.265 177.421 454.519 174.214 462.422 171.085C467.224 169.183 473.207 167.17 478.344 165.283C482.656 163.7 488.316 161.502 492.651 160.154C495.29 159.334 497.246 157.454 498.461 157.178C502.136 156.346 496.995 165.794 495.506 169.445C493.839 173.529 491.328 176.595 489.971 179.971C489.433 181.987 488.89 183.89 488.486 185.639C488.348 186.586 488.348 187.655 487.538 187.947" stroke="#182d5b" stroke-width="10" stroke-linecap="round"/>
<path d="M485.919 171.753C483.498 173.097 478.13 175.785 469.081 178.761C464.708 180.199 461.636 180.117 460.823 180.655C460.026 181.183 468.049 181.469 476.818 181.068C482.365 180.815 483.749 175.008 485.777 171.631C486.872 169.809 486.996 167.712 487.534 167.032C490.004 163.913 487.279 177.388 484.579 182.801C483.765 184.692 482.688 186.052 480.939 186.862C479.992 187.137 478.923 187.137 477.822 187.137" stroke="#182d5b" stroke-width="10" stroke-linecap="round"/>
<path d="M451.102 177.421C450.835 179.032 449.758 182.262 448.811 185.639C448.265 187.585 448.406 189.558 447.6 190.372C445.188 192.809 443.556 184.724 441.394 181.481C439.311 178.356 438.423 175.008 437.208 171.765C435.867 168.185 433.03 165.291 431.002 162.049C430.073 160.564 429.516 158.806 427.638 157.591C422.181 154.064 417.921 160.142 414.007 162.7C410.454 165.022 407.395 167.963 404.286 170.259C401.045 172.652 398.489 176.06 395.246 178.894C392.436 181.35 390.392 184.692 387.821 187.801C384.983 190.367 381.226 195.736 377.433 201.962C376.619 203.055 375.818 203.59 374.992 204.14" stroke="#182d5b" stroke-width="10" stroke-linecap="round"/>
<path d="M418.715 216.286C418.715 216.82 416.577 217.095 413.205 216.695C411.916 216.541 411.703 215.492 411.699 214.678C411.691 213.042 412.504 211.436 412.776 209.82C413.047 208.206 411.436 207.112 410.221 206.039C406.982 203.178 411.152 198.489 411.561 191.214C412.504 186.878 413.581 182.57 414.529 178.518C414.666 177.17 414.666 175.299 414.666 173.372" stroke="#182d5b" stroke-width="10" stroke-linecap="round"/>
<path d="M415.476 166.895V170.943" stroke="#182d5b" stroke-width="10" stroke-linecap="round"/>
<path d="M382.279 201.711C380.668 201.978 376.903 203.055 372.712 204.136C369.276 205.023 365.033 205.76 360.166 206.432C354.793 207.174 345.114 207.379 337.9 208.051C330.762 208.716 325.358 208.998 314.212 209.67C292.459 210.982 277.028 209.541 275.279 209.002C271.093 208.189 268.121 207.921 265.704 207.517C264.089 207.379 261.684 207.379 259.206 207.379" stroke="#182d5b" stroke-width="10" stroke-linecap="round"/>
<path d="M252.729 204.95C248.988 204.95 242.786 204.95 235.908 204.816C232.48 204.75 219.92 204.14 201.706 204.274C192.505 204.341 187.711 205.76 183.917 206.565C183.104 206.837 182.302 207.104 179.484 207.241C176.667 207.379 171.857 207.379 166.902 207.379" stroke="#182d5b" stroke-width="10" stroke-linecap="round"/>
<path d="M470.095 244.563C470.698 244.563 471.611 243.659 472.976 242.44C473.591 241.891 474.643 242.426 475.108 243.335C475.574 244.244 475.574 245.75 475.875 246.075C476.779 245.495 478.304 243.961 479.674 242.143C480.14 240.929 480.14 239.121 480.14 239.997" stroke="#182d5b" stroke-width="10" stroke-linecap="round"/>
<path d="M316.503 356.378C316.503 358.412 316.909 362.918 317.628 368.637C317.732 371.492 317.732 376.157 317.834 378.865C317.935 381.572 318.138 382.181 318.962 384.037" stroke="#182d5b" stroke-width="10" stroke-linecap="round"/>
<path d="M318.962 385.881C318.759 388.948 318.347 391.806 317.634 394.578C316.794 397.845 316.098 401.837 315.378 405.639C314.667 409.402 313.639 413.11 312.818 416.703C311.998 420.295 311.586 423.559 310.974 426.642C310.357 433.375 310.762 441.808 311.58 443.034C311.992 443.652 312.397 444.261 312.815 444.888" stroke="#182d5b" stroke-width="10" stroke-linecap="round"/>
<path d="M315.889 437.512C318.335 437.512 322.023 437.918 327.137 439.758C330.567 440.993 333.087 442.011 335.65 443.041C336.369 443.247 337.18 443.449 339.322 443.554C341.464 443.658 344.912 443.658 348.465 443.044" stroke="#182d5b" stroke-width="10" stroke-linecap="round"/>
<path d="M348.465 420.916C349.682 422.539 351.12 423.983 352.654 425.311C353.985 426.842 355.017 429.097 355.632 432.466C355.841 434.414 355.841 436.848 355.226 439.97" stroke="#182d5b" stroke-width="10" stroke-linecap="round"/>
<path d="M354.612 440.585C356.443 439.977 360.537 438.335 364.022 436.7C368.922 434.402 371.195 429.743 373.352 426.156C373.956 425.153 373.666 423.608 373.362 422.573C372.382 419.238 368.158 416.024 365.07 414.057C362.708 412.553 360.156 411.905 358.204 409.557C355.294 406.056 356.05 402.489 355.942 383.499C355.902 376.428 357.476 373.6 357.888 370.527C358.375 366.893 362.381 364.786 365.356 363.044C369.197 360.794 372.621 359.869 375.703 358.228C376.524 357.816 377.538 357.41 378.365 356.999C379.191 356.587 379.8 356.181 381.042 355.148" stroke="#182d5b" stroke-width="10" stroke-linecap="round"/>
</svg>
