<svg width="321" height="462" viewBox="0 0 321 462" fill="none" xmlns="http://www.w3.org/2000/svg">
<path d="M160.332 154.131C159.692 157.519 160.537 164.367 162.353 166.721C162.773 167.265 163.522 167.364 163.954 167.156C166.103 166.122 165.879 162.471 165.991 152.994C166.016 150.932 165.674 150.3 165.248 149.868C164.822 149.436 164.188 149.224 163.544 149.327C162.901 149.429 162.267 149.852 161.834 150.387C161.191 151.556 160.973 154.112 161.184 157.311C161.395 158.608 161.818 159.242 163.535 159.896" stroke="#182d5b" stroke-width="10" stroke-linecap="round"/>
<path d="M210.935 144.523C214.125 147.078 217.968 148.789 221.488 150.281C224.143 151.133 226.302 151.991 227.58 152.738C228.223 153.061 228.857 153.272 229.511 153.49" stroke="#182d5b" stroke-width="10" stroke-linecap="round"/>
<path d="M160.332 100.325C161.607 99.2619 164.163 97.9808 167.26 96.5941C170.104 95.3207 173.553 94.1376 176.548 93.2825C177.403 93.0679 178.46 92.8565 179.321 92.6419C180.183 92.4273 180.817 92.216 181.47 91.9982" stroke="#182d5b" stroke-width="10" stroke-linecap="round"/>
<path d="M111.98 133.375C112.09 132.824 112.201 132.273 112.312 131.714C112.424 131.155 112.534 130.604 112.591 128.889C112.648 127.173 112.648 124.309 112.648 121.359" stroke="#182d5b" stroke-width="10" stroke-linecap="round"/>
<path d="M112.648 117.687C112.648 116.916 112.648 116.145 112.648 114.591C112.648 113.037 112.648 110.724 112.314 107.673" stroke="#182d5b" stroke-width="10" stroke-linecap="round"/>
<path d="M111.98 103.668C111.98 103.448 111.98 97.4965 111.925 88.486C111.899 84.2824 110.538 82.9802 109.924 81.6434C109.2 80.3066 108.866 79.3053 108.644 78.5843C108.532 78.1938 108.422 77.7532 108.309 76.9655" stroke="#182d5b" stroke-width="10" stroke-linecap="round"/>
<path d="M108.643 74.2952C110.188 74.2952 113.309 74.5155 115.2 75.0161C116.96 75.4822 119.09 76.4047 120.819 77.0188C123.147 77.8459 124.878 79.2952 126.383 80.0229C128.154 80.879 130.105 82.2993 131.669 83.304C132.971 84.1409 134.337 84.529 135.674 85.5837C136.961 86.5988 138.343 87.1992 139.679 88.254C141.016 89.2019 142.128 89.9796 142.905 90.6455C143.243 90.981 143.463 91.3114 143.69 91.6519" stroke="#182d5b" stroke-width="10" stroke-linecap="round"/>
<path d="M197.488 83.2355C198.845 82.0766 200.004 79.7527 202.622 74.9071C204.65 71.1532 206.993 68.3026 207.968 65.772C208.164 65.1867 208.356 64.6101 208.551 64.0248C208.746 63.4395 208.938 62.8629 209.136 61.6864" stroke="#182d5b" stroke-width="10" stroke-linecap="round"/>
<path d="M209.719 56.4448C209.719 56.2526 209.719 56.0604 209.911 55.577C210.103 55.0936 210.488 54.3248 210.878 53.6405C211.268 52.9562 211.652 52.3796 212.048 51.7855" stroke="#182d5b" stroke-width="10" stroke-linecap="round"/>
<path d="M219.62 50.0382C219.62 49.6538 220.388 49.0714 222.034 48.489C222.91 48.291 223.871 48.291 224.462 48.5793C225.054 48.8676 225.246 49.4442 225.444 50.0382" stroke="#182d5b" stroke-width="10" stroke-linecap="round"/>
<path d="M226.026 53.5327C226.218 54.8839 226.993 57.5979 227.867 60.0266C228.912 62.9334 229.905 65.1693 230.682 68.4686C231.374 71.405 232.235 75.2566 232.916 78.4686C233.504 81.2379 234.366 84.7732 234.858 88.7539C235.345 91.5757 235.537 93.7131 235.828 95.7399C235.927 97.1901 235.927 99.4965 235.927 101.873" stroke="#182d5b" stroke-width="10" stroke-linecap="round"/>
<path d="M236.51 107.114C237.669 107.883 239.992 110.982 242.229 114.092C244.34 117.028 245.63 119.916 246.891 122.248C248.047 124.387 248.344 126.905 249.32 129.237C250.268 131.506 250.872 133.894 251.649 136.226C251.844 136.811 252.037 137.388 252.136 138.454C252.235 139.52 252.235 141.057 252.235 142.641" stroke="#182d5b" stroke-width="10" stroke-linecap="round"/>
<path d="M246.411 146.718C247.57 146.526 250.662 146.136 255.709 144.493C257.075 144.004 258.42 143.62 259.593 143.134C260.767 142.647 261.728 142.071 263.883 140.312" stroke="#182d5b" stroke-width="10" stroke-linecap="round"/>
<path d="M251.07 153.125H274.366" stroke="#182d5b" stroke-width="10" stroke-linecap="round"/>
<path d="M107.797 172.344H122.357" stroke="#182d5b" stroke-width="10" stroke-linecap="round"/>
<path d="M122.357 178.751C121.204 180.288 120.033 181.657 118.775 183.299C118.094 184.365 117.325 185.903 116.641 186.983C115.957 188.063 115.38 188.64 114.786 189.817" stroke="#182d5b" stroke-width="10" stroke-linecap="round"/>
<path d="M113.621 136.817C113.621 140.667 114.005 148.454 114.396 151.366C115.368 154.284 116.137 156.992 117.596 159.522C117.89 160.108 118.082 160.684 118.28 161.861" stroke="#182d5b" stroke-width="10" stroke-linecap="round"/>
<path d="M128.764 190.399C130.505 191.948 132.829 193.882 135.162 195.247C137.911 196.857 140.4 198.739 142.733 199.715C145.001 200.663 147.389 201.267 149.914 201.948C151.653 202.047 153.219 202.239 154.381 202.627C154.967 202.822 155.543 203.014 156.72 203.212" stroke="#182d5b" stroke-width="10" stroke-linecap="round"/>
<path d="M196.906 168.267C196.713 168.075 196.521 167.883 196.711 167.688C197.308 167.072 198.647 166.91 199.521 166.907C199.818 167.097 199.818 167.673 199.722 168.259C199.626 168.844 199.433 169.421 198.653 170.015" stroke="#182d5b" stroke-width="10" stroke-linecap="round"/>
<path d="M140.994 210.201C140.226 211.744 137.896 214.848 135.954 216.698C134.06 218.5 133.05 222.222 130.424 223.882C127.279 225.869 126.83 229.409 126.338 231.741C125.837 234.118 124.116 236.782 122.847 239.313C121.58 241.836 120.039 244.551 118.866 247.367C117.79 249.949 116.731 252.705 115.762 255.038C114.596 257.84 111.886 259.694 109.166 263.477C107.321 266.043 105.479 268.43 104.113 270.763C102.64 273.279 101.589 275.419 99.8444 278.235C98.4239 280.528 97.1274 282.99 95.9597 285.227C95.5724 285.716 94.9958 286.1 94.6027 286.587C94.2096 287.073 94.0174 287.65 93.8193 288.244" stroke="#182d5b" stroke-width="10" stroke-linecap="round"/>
<path d="M92.0719 291.738C91.8797 292.123 91.6875 292.507 91.4924 292.993C91.2973 293.48 91.1051 294.056 90.3247 295.815" stroke="#182d5b" stroke-width="10" stroke-linecap="round"/>
<path d="M87.9951 297.562C88.1873 297.562 88.3795 297.562 88.5746 297.851C88.7697 298.139 88.9619 298.715 89.0609 299.493C89.1599 300.27 89.1599 301.231 89.1599 302.222" stroke="#182d5b" stroke-width="10" stroke-linecap="round"/>
<path d="M83.3358 300.474C84.1104 301.633 84.885 303.957 85.3743 306.29C85.9925 309.237 81.0178 311.528 79.7482 314.344C78.6218 316.843 77.7098 319.1 77.4156 321.432C76.9991 324.735 76.5449 328.424 75.9625 335.16C75.4317 341.299 75.7645 353.043 75.8606 359.37C75.9567 365.698 76.1489 366.275 76.2479 367.629C76.3469 368.983 76.3469 371.097 76.3469 373.275" stroke="#182d5b" stroke-width="10" stroke-linecap="round"/>
<path d="M70.5228 377.935C67.6166 377.935 65.2928 377.166 62.9602 375.707C60.7122 374.301 58.3038 372.122 56.5508 369.21C54.7574 366.231 53.4465 363.386 50.8286 360.474C48.4456 357.823 47.6225 355.232 47.1303 349.999C46.849 347.008 46.0616 343.211 45.386 339.991C44.7299 336.863 43.93 334.266 43.6359 326.616C43.3476 324.365 42.9574 323.194 42.6661 320.591C42.5671 318.564 42.5671 315.104 42.5671 311.54" stroke="#182d5b" stroke-width="10" stroke-linecap="round"/>
<path d="M44.8969 306.298C46.2481 304.953 48.5777 299.531 50.5201 295.923C52.2061 292.791 54.4018 288.838 56.8276 283.121C58.0818 280.166 58.2923 277.772 59.3552 275.439C60.4634 273.008 60.622 267.51 61.1054 260.038C62.1792 243.438 60.622 239.158 60.1386 235.256C59.778 232.346 59.0727 230.014 58.2952 227.682C57.5177 225.349 56.7431 223.026 55.9656 220.693C55.1881 218.36 54.0291 216.037 52.9574 213.704C51.8095 211.205 49.9522 209.048 48.3011 206.715C47.3913 205.43 46.0675 204.575 44.9056 203.896C43.8179 203.261 42.3809 203.212 41.2161 203.5C39.1593 204.009 40.2376 210.935 40.8171 214.851C41.4024 217.568 41.7868 220.673 42.0809 223.005C42.177 223.59 42.3692 224.167 42.5673 225.926" stroke="#182d5b" stroke-width="10" stroke-linecap="round"/>
<path d="M43.1496 232.332C43.3418 234.068 43.7321 237.562 44.2155 240.087C44.8394 243.346 45.2813 246.101 45.9627 252.003C47.4461 264.853 44.5125 268.43 43.6389 270.763C42.6744 273.338 41.018 275.419 39.661 278.235C38.408 280.835 37.3255 282.99 36.746 285.323C36.137 287.774 34.6115 290.364 33.834 292.99C32.9361 296.024 30.9307 299.484 29.7571 302.309C28.6134 305.062 27.6226 307.452 26.9412 309.976C26.0267 313.365 25.8754 316.188 25.5813 319.1C25.2076 322.8 24.9028 326.094 24.6115 332.35C24.3474 338.023 24.5125 348.791 24.6086 354.72C24.7401 362.832 26.6442 365.494 27.6139 367.929C28.0012 368.418 28.5778 368.803 29.1631 369.097C29.7484 369.391 30.325 369.583 32.0839 370.363" stroke="#182d5b" stroke-width="10" stroke-linecap="round"/>
<path d="M40.2375 374.44C41.9731 375.593 45.4676 378.704 47.8962 381.418C50.6017 384.441 52.6545 386.659 56.2392 390.346C58.5019 392.673 60.6102 395.197 62.9428 398.019C64.5931 400.016 67.0167 401.418 69.3493 402.973C71.5971 404.471 74.0056 405.494 76.3382 405.987C76.9235 406.083 77.5001 406.275 78.1815 406.374C78.8629 406.473 79.6317 406.473 80.4238 406.473" stroke="#182d5b" stroke-width="10" stroke-linecap="round"/>
<path d="M76.3469 375.605C75.7645 380.259 75.3801 383.351 75.4704 393.619C75.519 399.148 78.2805 401.219 81.8623 404.519C86.4018 408.7 90.8955 409.187 93.2281 410.931C95.3171 412.493 97.8844 413.648 100.217 415.203C102.55 416.758 104.873 417.923 107.206 418.797C108.465 419.268 115.496 419.868 125.878 419.964C130.694 420.009 139.94 420.451 152.75 420.547C159.271 420.596 163.103 421.615 166.029 422.195C166.615 422.39 167.191 422.582 168.737 422.681C170.284 422.78 172.782 422.78 175.357 422.78" stroke="#182d5b" stroke-width="10" stroke-linecap="round"/>
<path d="M178.851 409.385C178.851 413.631 179.235 419.28 180.106 420.25C181.735 422.063 184.664 422.384 187.573 423.264C192.606 424.785 195.147 421.429 197.479 420.742C198.684 420.387 199.62 422.192 200.49 423.162C201.301 424.065 204.454 423.945 207.948 423.272C209.329 419.292 209.719 413.893 210.202 407.477C210.301 404.394 210.301 398.82 210.301 393.077" stroke="#182d5b" stroke-width="10" stroke-linecap="round"/>
<path d="M220.202 393.077C220.202 394.819 219.818 397.143 219.04 400.442C218.391 403.198 217.872 405.879 217.389 410.232C216.741 416.071 217.867 420.06 219.028 420.448C220.19 420.835 221.553 421.033 222.814 420.745C223.37 420.618 223.498 419.88 223.886 419.583C224.273 419.286 224.85 419.286 225.147 419.574C225.803 420.211 225.636 421.61 226.215 422.675C226.837 423.818 228.35 424.137 229.608 424.428C231.024 424.756 232.427 424.335 233.397 423.756C233.87 423.473 233.982 422.792 234.369 422.399C234.756 422.006 235.333 421.813 235.726 422.003C236.595 422.421 237.086 423.747 238.825 424.329C241.573 425.25 244.075 424.143 245.141 423.272C246.795 421.039 247.767 419.292 248.059 418.034C248.158 417.352 248.158 416.583 248.158 415.791" stroke="#182d5b" stroke-width="10" stroke-linecap="round"/>
<path d="M248.158 411.132C248.158 410.555 248.158 409.979 248.158 403.532C248.158 397.084 248.158 384.784 248.062 378.159C247.575 369.787 247.383 368.04 247.092 364.956C246.993 362.448 246.993 358.028 246.993 353.474" stroke="#182d5b" stroke-width="10" stroke-linecap="round"/>
<path d="M256.312 413.462C256.312 409.973 258.618 404.959 261.932 398.246C264.629 392.783 263.685 389.595 263.979 382.428C264.156 378.121 264.85 373.87 265.627 371.537C266.405 369.204 267.179 366.881 267.957 364.065C268.636 361.604 269.893 358.925 270.869 356.394C271.734 354.15 272.223 351.738 273.102 349.309C274.132 346.465 273.784 342.431 274.267 337.288C275.114 328.283 273.399 325.53 273.009 320.297C272.78 317.221 271.652 315.046 271.358 312.714C271.047 310.243 268.938 308.057 266.804 305.337C266.218 304.749 265.642 304.365 265.249 303.879C264.855 303.392 264.663 302.816 263.883 301.057" stroke="#182d5b" stroke-width="10" stroke-linecap="round"/>
<path d="M263.883 296.98C263.498 295.058 263.3 292.146 263.012 289.522C262.929 288.768 262.147 289.397 261.754 289.982C261.361 290.568 261.169 291.144 260.878 291.153C258.729 291.217 259.223 287.091 258.644 284.758C258.059 282.425 257.674 279.717 256.801 277.091C256.509 276.409 256.125 275.64 255.729 274.266" stroke="#182d5b" stroke-width="10" stroke-linecap="round"/>
<path d="M255.147 271.354C254.372 266.706 252.829 262.059 252.139 259.132C251.581 256.768 250.301 251.785 249.422 247.874C248.647 244.429 248.158 239.356 247.578 235.836C247.183 233.432 244.093 231.762 241.952 229.912C240.108 228.319 240.202 224.971 239.425 222.44C239.037 221.278 238.647 220.108 238.356 218.946C238.257 218.36 238.257 217.784 238.257 217.19" stroke="#182d5b" stroke-width="10" stroke-linecap="round"/>
<path d="M237.092 211.366C236.515 209.246 235.345 204.971 234.765 202.155C234.622 201.458 234.378 200.894 234.567 200.501C235.663 198.225 239.026 196.817 240.677 194.001C242.495 190.901 244.465 188.081 246.21 184.782C247.677 182.006 248.927 178.762 249.419 176.43C249.933 173.994 251.839 171.389 253.49 168.087C254.553 165.961 255.339 164.196 255.726 163.034C255.921 162.449 256.113 161.873 256.311 160.114" stroke="#182d5b" stroke-width="10" stroke-linecap="round"/>
</svg>
