<svg width="427" height="733" viewBox="0 0 427 733" fill="none" xmlns="http://www.w3.org/2000/svg">
<path d="M176.689 50.6041C178.192 49.3504 181.206 47.3414 184.858 45.2002C188.275 43.1965 191.523 41.7978 195.431 40.9142C198.77 40.1593 205.842 40.0305 214.29 39.4037C226.496 38.4979 229.542 40.529 233.194 41.5373C237.144 42.6281 241.626 44.3053 244.651 45.4382C247.99 46.6888 250.689 49.3353 253.714 52.1033C257.39 55.467 260.266 59.652 262.15 62.6768C264.191 65.953 266.051 68.7151 268.068 71.8645C270.257 75.2838 271.836 80.5272 273.483 84.953C275.372 90.0326 276.625 94.1369 277.89 97.5431C279.401 101.612 280.159 105.722 282.538 112.878C285.784 122.642 287.953 128.123 288.841 131.779C290.106 136.99 291.986 140.207 292.995 143.614C294.092 147.32 295.763 150.781 296.771 154.187C297.868 157.894 300.037 161.853 301.302 166.143C302.43 169.967 304.07 173.438 305.203 177.471C306.381 181.663 307.847 185.024 308.353 188.173C309.017 192.307 311.366 198.09 312.129 202.399C312.741 205.853 313.889 209.192 314.27 212.342C314.716 216.024 315.399 219.01 315.781 222.662C316.448 229.052 316.91 238.647 317.291 254.334C317.4 258.796 317.922 269.031 317.797 283.377C317.733 290.819 315.913 294.279 315.029 297.685C314.044 301.482 313.149 305.608 311.884 309.641C310.712 313.377 310.369 317.435 309.742 325.833C309.365 353.453 308.859 356.716 308.734 359.733C308.61 361.006 308.36 361.753 308.104 363.279" stroke="#660033" stroke-width="8" stroke-linecap="round"/>
<path d="M180.439 49.2927C179.429 50.9863 176.705 54.3736 174.328 58.628C171.633 63.4524 168.543 66.6166 165.998 70.7027C163.127 75.3115 159.708 78.8596 156.984 82.9458C154.152 87.1937 150.526 91.1027 147.97 95.1888C145.507 99.1268 143.037 103.346 140.66 107.432C138.28 111.522 136.916 115.589 135.553 119.675C134.191 123.761 132.161 129.178 130.452 133.958C128.894 138.316 127.733 143.136 126.371 147.222C125.009 151.308 123.652 155.379 122.29 160.312C121.014 164.932 119.571 169.662 118.209 173.748C117.184 179.854 116.847 187.017 116.337 190.567C116.164 193.108 116.164 197.148 116.164 201.31" stroke="#660033" stroke-width="8" stroke-linecap="round"/>
<path d="M116.164 201.31C118.194 201.984 122.265 205.371 126.351 207.595C130.582 209.898 134.508 213.533 138.594 215.589C142.547 217.578 147.424 218.655 151.857 219.67C156.283 220.683 161.034 221.369 165.289 222.731C172.304 224.977 181.439 222.409 185.525 219.685C189.612 216.961 193.682 214.921 198.273 213.727C204.704 212.055 208.986 215.92 213.072 217.798C217.449 219.809 221.229 222.389 225.315 224.598C226.341 225.113 227.351 225.45 228.376 225.96C229.401 226.47 230.411 227.143 233.493 227.837" stroke="#660033" stroke-width="8" stroke-linecap="round"/>
<path d="M215.128 187.027C217.158 187.7 221.229 189.741 226.667 190.934C233.343 192.4 237.553 192.801 253.495 192.98C260.116 193.054 264.08 190.434 268.166 188.226C272.006 186.15 276.323 184.66 280.409 181.936C285.836 178.318 290.953 171.743 293.509 167.657C295.824 163.957 296.401 159.5 296.412 153.721C296.414 152.308 295.402 151.338 294.55 150.481C293.698 149.624 292.688 148.951 291.831 149.109C287.786 149.856 287.913 156.399 286.719 160.653C285.378 165.433 284.179 169.662 281.455 173.748C278.623 177.996 274.323 181.232 270.069 183.788C265.359 186.616 259.366 186.68 249.006 187.195C239.329 188.047 227.381 187.71 225.346 187.032C224.321 186.69 223.311 186.353 220.229 184.986" stroke="#660033" stroke-width="8" stroke-linecap="round"/>
<path d="M276.343 173.764C279.394 172.07 283.465 169.356 286.704 165.617C288.51 163.532 290.28 161.531 291.469 159.495C294.44 154.407 292.331 147.247 291.484 146.222C290.3 147.217 289.27 149.267 288.591 151.471C288.25 152.665 287.913 154.011 287.566 157.439" stroke="#660033" stroke-width="8" stroke-linecap="round"/>
<path d="M166.156 109.488C164.462 110.834 161.075 116.935 160.203 131.877C159.837 138.147 162.748 142.115 167.834 147.727C171.523 151.797 176.338 153.012 180.424 154.374C189.781 157.493 205.925 154.052 210.011 152.007C215.172 149.423 216.822 143.176 219.03 139.09C221.257 134.972 221.25 124.526 216.51 116.14C213.808 111.357 207.333 110.181 202.9 107.626C199.119 105.445 194.743 104.733 188.117 104.218C185.52 104.016 181.49 103.366 176.394 103.703C170.901 104.066 168.89 110.487 167.181 114.574C166.839 115.599 166.503 116.609 166.161 117.803C165.819 118.996 165.483 120.343 165.136 124.791" stroke="#660033" stroke-width="8" stroke-linecap="round"/>
<path d="M165.136 124.791C165.136 127.158 165.809 130.903 167.334 132.601C170.187 135.778 175.318 136.341 181.429 137.881C183.74 138.464 187.173 138.055 188.908 136.371C190.642 134.688 190.642 131.321 190.137 129.25C189.394 126.204 186.571 125.138 184.368 124.286C183.242 123.851 181.827 124.445 180.797 125.123C178.793 126.442 178.062 128.862 177.552 131.066C177.28 132.241 177.379 133.606 178.052 134.637C178.726 135.667 180.072 136.341 181.439 136.856C182.807 137.371 184.153 137.708 186.561 138.055" stroke="#660033" stroke-width="8" stroke-linecap="round"/>
<path d="M188.602 125.812C187.928 125.812 186.235 125.812 184.026 126.317C183.052 126.539 182.827 127.832 182.485 127.847C178.826 128.011 176.379 121.404 173.645 117.497C172.932 116.478 173.298 114.956 173.803 113.926C175.9 109.647 191.887 110.508 200.829 112.538C205.549 113.61 207.293 119.67 210.695 122.909C213.788 125.853 213.761 130.893 215.123 134.979C215.802 137.014 216.148 140.075 215.98 142.462C215.502 149.243 214.455 124.812 212.588 119.711C211.388 116.434 207.66 115.273 205.114 114.594C194.446 111.751 175.706 114.915 171.273 116.793C170.218 117.239 169.237 117.976 168.549 118.828C167.86 119.68 167.523 120.69 167.855 121.042C168.186 121.394 169.196 121.057 169.885 121.389C173.376 123.07 175.665 125.812 177.874 126.317C179.757 126.747 180.429 129.546 182.465 130.734C183.456 131.313 184.5 131.586 185.021 130.918C185.541 130.25 185.541 128.566 185.036 127.363C183.171 122.916 179.43 121.057 177.394 120.205C176.434 119.804 175.359 120.364 174.502 121.042C172.715 122.457 171.941 124.781 171.599 126.817C171.429 127.828 171.931 128.852 174.461 129.372C176.991 129.893 181.705 129.893 184.301 129.388C186.898 128.883 187.234 127.873 187.408 126.511C187.581 125.149 187.581 123.465 187.076 122.261C186.571 121.057 185.561 120.384 184.368 120.205C181.827 120.364 179.43 121.384 177.731 122.909C177.042 123.761 176.705 124.771 176.359 125.812" stroke="#660033" stroke-width="8" stroke-linecap="round"/>
<path d="M113.103 206.412C115.133 207.769 119.204 209.125 123.29 211.334C127.13 213.41 131.447 214.9 135.533 216.609C139.507 218.271 143.69 220.001 147.776 221.71C151.75 223.372 155.933 224.429 162.56 224.945C171.222 225.618 183.48 224.45 188.581 222.404C194.936 219.856 206.211 218.655 213.072 220.517C217.285 221.66 221.229 224.082 225.315 225.791C226.341 226.133 227.351 226.47 228.545 226.643C229.738 226.817 231.085 226.817 232.473 226.817" stroke="#660033" stroke-width="8" stroke-linecap="round"/>
<path d="M235.533 225.796C234.523 223.766 230.452 220.369 225.519 217.645C221.093 215.2 217.189 212.88 213.103 210.671C209.263 208.595 200.232 208.452 193.718 209.636C189.146 210.466 185.561 213.207 181.475 215.415C177.052 216.951 172.971 217.971 170.257 218.65C168.89 218.991 167.544 219.328 165.136 219.675" stroke="#660033" stroke-width="8" stroke-linecap="round"/>
<path d="M229.412 220.695C230.085 220.695 231.442 221.369 233.477 222.725C235.513 224.082 237.563 225.45 238.589 226.638C238.604 227.153 237.594 227.49 234.513 227.837" stroke="#660033" stroke-width="8" stroke-linecap="round"/>
<path d="M290.627 140.095C288.597 140.769 285.872 144.156 283.327 148.242C280.57 152.668 278.731 156.399 277.537 161.495C275.431 170.488 274.65 174.763 272.104 178.681C271.446 179.694 270.242 180.212 270.395 179.885C272.686 174.998 277.69 172.764 281.261 168.678C284.434 165.047 284.505 152.44 285.52 144.192C285.653 143.119 286.199 142.156 285.867 141.972C282.811 140.28 281.118 148.237 279.578 152.66C277.666 158.149 277.71 163.867 275.333 168.647C273.178 172.981 268.202 175.11 264.962 178.513C261.804 181.831 256.979 183.619 252.893 184.981C244.171 187.889 229.432 185.333 224.499 184.818C222.29 184.313 219.903 183.966 217.357 183.798C216.159 183.629 215.149 183.293 214.108 182.946" stroke="#660033" stroke-width="8" stroke-linecap="round"/>
<path d="M114.123 205.391C112.43 206.401 109.716 210.472 106.313 213.712C102.995 216.87 101.207 221.695 98.998 225.781C96.8606 229.735 95.0853 233.938 93.7233 238.024C92.1837 242.643 88.9638 247.201 87.4334 251.287C85.8034 255.64 83.8625 259.444 82.5005 263.53C81.1385 267.617 79.7815 271.687 79.0979 278.314C78.3959 285.12 76.7208 293.113 76.2055 301.433C75.8744 306.781 74.0069 311.477 72.4663 316.578C70.9812 321.496 70.5992 325.761 69.2372 329.847C67.8015 334.154 67.5385 339.024 66.3448 343.278C64.9913 348.102 63.4575 352.287 62.9423 358.067C62.4531 363.555 60.7436 369.632 59.0347 375.411C57.6282 380.168 56.3157 385.609 55.8005 393.429C55.4552 398.67 53.255 403.973 51.8929 408.575C50.3677 413.727 50.1942 418.604 48.1537 422.858C45.9979 427.353 46.1132 431.867 44.7511 436.968C43.3211 442.324 43.0524 447.171 42.5372 452.951C42.321 455.376 41.6853 460.077 42.1903 465.857C42.8672 473.603 61.0497 467.943 65.9826 467.428C70.381 466.969 74.9863 464.882 79.5877 463.689C84.3929 462.442 89.2699 461.822 93.7029 460.46C97.8201 459.195 101.86 457.741 105.946 455.532C109.786 453.456 114.103 451.966 118.189 450.257C122.275 448.895 125.336 447.538 127.371 446.35C128.397 445.834 129.407 445.498 131.468 445.151" stroke="#660033" stroke-width="8" stroke-linecap="round"/>
<path d="M122.285 431.887C120.255 432.224 116.184 433.581 112.098 435.79C108.258 437.866 103.941 439.356 99.855 441.065C95.8814 442.726 91.698 443.784 86.5968 444.977C81.595 446.148 77.4145 446.844 73.3284 448.206C69.2423 449.568 66.1815 450.925 64.1461 452.114C63.1208 452.629 62.1107 452.966 61.0701 453.313" stroke="#660033" stroke-width="8" stroke-linecap="round"/>
<path d="M88.617 248.242C88.617 252.966 87.9436 262.505 86.7499 267.606C85.5795 272.608 84.8828 276.789 84.3676 281.89C83.8403 287.111 81.8221 291.072 80.46 295.327C78.8217 300.444 78.7613 305.356 78.2461 310.289C77.7529 315.01 76.3739 322.333 75.5271 327.975C74.7903 332.884 73.6601 336.984 72.298 341.07C70.8346 345.46 69.579 350.92 68.0487 356.368C66.5423 361.731 64.4778 365.551 63.1157 369.637C61.6523 374.027 60.3968 378.814 59.0347 382.9C57.5713 387.29 56.3158 392.077 55.1221 396.5C53.6075 402.112 53.255 407.034 52.7398 414.854C52.3945 420.096 50.8676 427.419 50.0208 433.397C49.0866 439.993 48.8271 446.13 48.9955 452.757C49.0613 455.348 49.5005 456.353 52.7041 456.873C69.0093 459.522 73.9661 456.374 78.3991 455.358C83.4663 454.198 89.6168 452.986 94.8864 451.446C100.631 449.766 104.921 449.579 109.007 447.37C113.093 445.834 116.154 444.477 118.021 442.952C118.878 442.1 119.551 441.09 121.265 438.009" stroke="#660033" stroke-width="8" stroke-linecap="round"/>
<path d="M121.265 438.009C119.235 439.019 114.49 441.743 110.057 443.105C105.94 444.37 101.9 445.824 96.7992 447.355C91.1664 449.044 86.5966 450.925 82.5105 452.287C78.4244 453.65 74.3536 455.006 70.2675 456.368C65.9604 457.804 61.0903 458.067 55.3106 458.582C53.9384 458.751 52.9283 459.087 51.903 459.429C50.8776 459.771 49.8676 460.108 47.8066 461.475" stroke="#660033" stroke-width="8" stroke-linecap="round"/>
<path d="M47.8066 461.475C53.5405 461.475 65.1305 460.801 74.2975 460.286C79.552 459.991 84.1684 457.741 91.9887 456.379C93.7078 456.037 94.7179 455.7 95.7432 455.358C96.7686 455.017 97.7786 454.68 100.86 454.333" stroke="#660033" stroke-width="8" stroke-linecap="round"/>
<path d="M100.86 454.333C93.0549 454.67 87.617 456.027 78.7969 457.22C67.2017 457.73 63.1309 459.087 59.0448 460.449C58.0194 460.791 57.0094 461.128 54.9485 461.475" stroke="#660033" stroke-width="8" stroke-linecap="round"/>
<path d="M53.9282 461.475C53.9282 452.69 54.6016 439.05 56.6421 434.795C58.7979 430.3 58.6826 425.113 60.0446 419.833C61.1617 415.503 62.7636 411.503 64.294 406.57C65.7651 401.828 66.8446 397.219 68.2067 392.286C70.0772 385.512 69.9054 375.794 70.4206 366.627C70.7344 361.045 72.9661 356.409 74.1598 352.155C74.4857 350.993 74.3333 349.614 74.5016 349.594C81.2246 348.779 70.5991 367.918 70.0839 373.713C69.5901 379.267 67.5384 385.262 66.3447 391.225C65.1625 397.131 63.4574 401.259 61.927 405.346C61.1012 407.55 59.3764 409.432 57.8511 411.13C57.1192 411.945 55.9891 412.156 55.4688 411.656C55.6218 407.412 57.999 402.667 61.0445 395.725C63.0799 391.475 66.11 385.752 69.232 379.855" stroke="#660033" stroke-width="8" stroke-linecap="round"/>
<path d="M62.0903 389.037C62.0903 385.67 62.427 381.915 62.9371 378.181C63.1106 376.467 63.1106 375.121 63.6156 372.743C64.1206 370.366 65.1307 366.999 66.1713 361.49" stroke="#660033" stroke-width="8" stroke-linecap="round"/>
<path d="M87.5967 323.741C89.627 322.047 93.6978 320.007 97.7839 317.629C98.8093 316.946 99.8193 316.272 100.845 315.421C101.87 314.569 102.88 313.559 103.921 312.518" stroke="#660033" stroke-width="8" stroke-linecap="round"/>
<path d="M87.5967 361.49C88.6067 359.796 92.0042 356.409 95.5751 353.17C99.1459 348.921 102.89 345.513 104.589 343.988C105.278 343.136 105.614 342.126 106.981 341.085" stroke="#660033" stroke-width="8" stroke-linecap="round"/>
<path d="M92.6978 384.956C93.7078 383.262 97.7786 379.875 101.865 374.774C103.9 372.06 105.951 369.662 107.986 367.795C109.012 366.938 110.022 366.265 112.083 363.531" stroke="#660033" stroke-width="8" stroke-linecap="round"/>
<path d="M91.8667 419.835C96.0715 414.327 106.549 403.839 110.475 400.409C111.442 399.564 112.43 398.939 112.607 399.091C115.442 401.532 106.589 404.8 103.477 407.735C100.474 410.568 97.4339 413.935 95.7873 417.375C99.6981 417.228 103.609 415.268 107.858 412.499C109.166 411.357 110.784 409.74 113.43 407.093" stroke="#660033" stroke-width="8" stroke-linecap="round"/>
<path d="M95.7871 419.835C96.1106 419.512 96.434 419.189 97.571 418.375C98.708 417.561 100.649 416.268 102.648 414.935" stroke="#660033" stroke-width="8" stroke-linecap="round"/>
<path d="M108.529 225.766C107.226 227.383 106.569 237.136 105.755 257.797C105.201 271.882 105.589 298.414 105.751 312.563C105.946 329.689 107.549 337.444 108.363 343.531C108.994 348.258 109.509 352.832 110.485 357.091C111.408 361.125 112.45 366.868 113.263 371.955C114.023 376.708 116.037 381.257 117.346 385.677C118.742 390.396 119.958 394.332 121.105 398.419C122.393 403.011 122.898 407.074 124.045 409.544C126.32 414.444 122.251 400.899 121.766 398.777C121.552 397.841 120.311 397.625 119.487 397.944C118.664 398.262 118.017 399.233 117.684 402.158C117.351 405.084 117.351 409.936 117.351 414.935" stroke="#660033" stroke-width="8" stroke-linecap="round"/>
<path d="M308.48 362.007C308.48 365.251 307.833 371.788 306.524 375.714C305.145 379.852 303.598 389.059 301.623 395.317C300.378 399.263 299.011 403.153 297.865 407.24C296.576 411.832 296.071 415.895 294.924 420.796C293.8 425.601 293.777 430.264 292.802 434.523C291.81 438.857 290.19 443.986 289.695 450.847C289.286 456.516 287.25 460.982 286.755 465.721C286.281 470.257 284.956 477.292 283.981 482.874C282.733 490.012 282.349 497.248 281.854 503.775C281.404 509.706 280.388 514.89 279.242 520.11C278.752 530.583 278.095 544.844 279.07 554.915C279.399 556.066 279.722 557.037 282.016 559.017" stroke="#660033" stroke-width="8" stroke-linecap="round"/>
<path d="M116.37 202.242C116.37 199.968 117.017 194.754 118.326 190.495C119.631 186.245 120.938 181.679 122.246 177.753C123.625 173.615 124.525 168.937 126.167 164.688C128.433 158.823 127.799 153.254 129.107 149.329C130.513 145.111 131.719 140.512 132.376 135.773C133.022 131.109 134.66 126.79 136.13 122.865C137.796 118.415 139.56 114.048 141.682 110.123C143.677 106.434 145.108 102.287 146.75 98.3611C148.39 94.4391 150.342 90.5248 152.464 86.5993C154.517 82.8008 156.87 78.763 159.649 74.8375C162.806 70.3777 165.691 66.0211 168.308 62.0956C171.029 58.0146 174.513 54.2593 178.428 50.8238C183.926 46.0004 187.255 43.4776 190.847 41.3409C198.82 36.598 214.365 40.1843 218.291 42.3063C221.98 44.3005 226.127 45.0851 231.028 46.3936C235.938 47.7045 239.849 49.6526 243.775 51.456C247.832 53.3199 250.964 56.1804 254.395 58.4788C258.341 61.1225 262.706 67.2756 266.323 72.6812C269.273 77.0903 272.528 82.958 275.145 88.5253C277.634 93.8211 279.722 98.3268 281.844 102.252C284.038 106.311 285.603 111.069 287.725 114.994C289.818 118.867 289.523 123.811 290.832 128.55C292.036 132.911 292.464 137.533 293.282 145.521C294.243 154.898 297.365 159.096 298.835 163.022C300.501 167.471 302.912 171.838 304.554 175.763C306.194 179.686 308.146 183.6 309.455 188.501C310.766 193.41 311.42 197.969 312.395 202.389C313.38 208.75 314.027 216.592 315.174 230.559C315.34 240.605 315.34 259.365 315.34 278.694" stroke="#660033" stroke-width="10" stroke-linecap="round"/>
<path d="M119.311 199.302C118.33 195.724 122.859 179.503 126.98 168.775C129.214 162.96 129.759 158.155 130.254 152.603C131.209 141.886 131.719 124.83 133.351 120.419C135.892 113.552 138.894 108.501 141.844 104.242C144.787 99.9945 148.049 95.4256 151.479 90.6866C154.381 86.6776 156.223 82.6836 160.296 77.1311C163.535 72.714 166.338 68.9615 169.45 65.036C172.562 61.1105 175.16 57.1997 179.085 54.2495C183.074 51.2514 187.901 49.0253 191.989 47.2218C196.745 45.1231 200.643 43.7913 207.156 42.6445C223.926 39.692 228.088 45.732 232.175 47.6972C237.308 50.1655 239.849 54.5533 244.427 58.9591C249.186 63.5403 253.905 69.9025 265.47 81.9632C271.191 87.9281 275.468 93.4261 278.085 97.3516C280.702 101.277 283.309 105.188 286.088 109.927C289.183 115.205 292.131 120.87 294.748 124.957C297.589 129.395 298.992 133.612 301.447 138.513C303.883 143.375 304.226 148.961 305.534 154.681C307.478 163.176 307.166 170.525 308.313 176.406C309.944 184.77 309.46 194.656 310.273 205.776C312.232 232.55 311.42 237.822 312.233 244.359C313.448 254.117 313.38 262.619 314.194 275.513C316.307 309.003 313.38 313.626 312.567 319.831C311.288 329.581 311.42 334.21 310.606 338.792C309.63 344.29 308.813 348.912 307.504 354.146C305.981 360.24 305.872 366.888 305.377 371.627C304.936 375.852 303.579 384.158 301.952 393.994C300.923 400.215 299.658 405.427 298.845 410.181C297.986 415.199 297.698 421.757 296.884 426.844C296.131 431.553 295.738 436.792 294.762 441.384C293.903 445.432 292.15 449.22 290.842 454.121C289.45 459.334 287.583 464.569 285.941 469.152C284.014 474.531 283.329 479.272 282.02 483.53C280.715 487.78 279.408 492.347 278.261 496.596C276.806 501.987 277.115 507.363 276.301 518.1C273.631 553.349 278.408 558.017 282.001 565.358C284.781 571.041 287.23 574.679 289.195 578.605C291.392 582.993 294.091 586.441 296.546 590.367C298.77 593.922 299.972 598.203 301.613 602.129C303.254 606.051 305.853 610.612 308.47 614.87C311.175 619.273 315.321 623.687 320.06 631.518C323.829 635.459 325.789 639.369 329.048 644.108C330.033 645.26 331.003 646.23 332.983 647.23" stroke="#660033" stroke-width="15" stroke-linecap="round"/>
<path d="M333.963 647.23C334.287 649.181 336.237 653.091 338.203 656.855C340.29 660.853 344.725 663.873 348.489 666.985C352.094 669.966 354.527 674.008 357.315 677.6C357.81 678.585 358.134 679.555 358.462 680.54C358.791 681.526 359.114 682.496 359.447 684.476" stroke="#660033" stroke-width="15" stroke-linecap="round"/>
<path d="M359.447 684.476C355.879 684.476 348.038 683.829 342.804 682.52C337.637 681.229 333.003 680.889 329.077 679.58C325.152 678.272 320.594 676.968 316.174 675.659C311.455 674.263 307.519 672.4 303.432 670.759C298.865 668.924 294.777 668.147 290.69 666.676C285.798 664.917 282.035 663.246 277.948 660.962C273.348 658.392 268.646 657.365 264.387 655.243C260.634 653.373 256.551 651.817 252.626 649.2C248.843 646.678 245.436 644.309 241.682 642.011C236.436 638.799 233.028 634.821 230.729 631.724C228.042 628.103 224.206 624.706 221.418 620.781C220.923 619.796 220.599 618.825 220.271 617.84C219.943 616.855 219.619 615.885 218.306 614.885" stroke="#660033" stroke-width="15" stroke-linecap="round"/>
<path d="M259.472 650.171C254.581 646.907 250.67 644.956 246.907 641.364C243.465 638.08 240.536 634.508 237.757 630.744C235.145 627.206 231.401 623.079 228.117 618.82C225.341 615.22 223.226 611.631 220.114 608.201C219.334 607.341 218.325 606.73 217.34 606.559C216.355 606.387 215.385 606.711 214.562 607.363C210.999 610.183 209.818 614.866 208.348 618.791C206.724 623.125 202.643 626.627 197.742 631.366C193.292 635.669 188.921 637.742 184.995 639.384C181.178 640.981 177.159 641.996 173.234 643.305C169.308 644.613 165.397 645.917 161.31 648.2C156.438 650.923 152.655 654.405 150.519 657.997C148.195 661.904 145.128 664.853 141.707 667.313C136.791 670.849 133.052 673.028 129.127 674.669C125.31 676.266 121.291 677.281 117.203 678.59C112.517 680.09 108.225 680.555 104.795 679.423C98.3827 677.307 105.902 668.813 108.519 663.912C111.276 658.75 113.743 654.111 115.385 650.024C117.255 645.368 118.977 640.722 120.448 636.301C122.088 631.368 123.878 627.647 126 623.721C127.994 620.032 129.426 615.885 131.881 611.146C133.937 607.177 135.64 603.143 138.576 596.615C140.829 591.604 141.521 587.461 142.829 583.535C144.138 579.61 145.442 574.405 146.75 569.813C147.968 565.537 149.362 560.997 150.671 556.258C151.979 552.165 153.283 547.608 154.591 543.349C154.92 542.364 155.243 541.394 155.576 540.394" stroke="#660033" stroke-width="15" stroke-linecap="round"/>
<path d="M155.576 540.394C155.9 538.443 157.203 534.533 158.35 530.445C159.726 525.544 159.497 509.813 157.87 500.061C157.082 495.337 155.91 491.406 153.788 487.48C151.793 483.791 150.362 479.644 148.72 475.719C147.08 471.797 144.481 467.882 142.839 463.957C141.243 460.139 140.227 456.121 138.919 452.195C137.61 448.27 135.66 444.359 134.018 440.433C132.326 436.387 129.446 432.597 127.485 428.51C126.829 423.766 125.525 419.855 124.216 414.954C123.888 413.641 123.565 412.347 123.231 409.054" stroke="#660033" stroke-width="15" stroke-linecap="round"/>
<path d="M317.301 202.242C318.271 203.869 321.535 207.123 324.966 209.422C328.712 211.932 331.983 215.298 335.747 218.077C339.474 220.828 342.118 224.766 346.034 228.202C352.203 233.614 356.487 237.841 361.388 242.247C366.141 246.521 370.209 249.603 374.135 252.22C378.06 255.161 381.971 258.424 385.083 261.855C385.901 262.678 386.872 263.325 387.872 264.972" stroke="#660033" stroke-width="15" stroke-linecap="round"/>
<path d="M387.872 264.972C386.254 267.569 381.677 272.793 375.644 280.625C371.615 285.855 365.681 289.789 357.845 296.636C351.819 301.9 345.431 305.785 338.237 310.858C332.346 315.273 326.475 320.487 323.353 324.746C322.858 325.731 322.535 326.702 320.241 329.662" stroke="#660033" stroke-width="15" stroke-linecap="round"/>
<path d="M311.42 364.947C313.704 368.858 316.301 372.769 321.04 379.296C324.834 384.522 328.063 388.451 331.822 393.023C338.071 400.625 341.785 404.133 345.872 407.407C351.017 411.528 354.527 415.248 358.938 419.326C362.348 422.737 365.642 426.03 368.087 428.475C369.239 429.627 370.209 430.597 372.189 432.577" stroke="#660033" stroke-width="15" stroke-linecap="round"/>
<path d="M372.189 432.577C370.886 440.409 368.935 444.32 366.318 451.661C363.902 458.44 361.094 466.197 358.967 473.543C354.785 487.988 354.547 493.974 352.92 499.203C350.191 507.971 351.606 514.871 350.793 521.252C350.626 527.573 350.303 532.543 349.813 535.469C349.646 537.424 349.646 540.335 348.666 543.334" stroke="#660033" stroke-width="15" stroke-linecap="round"/>
<path d="M348.666 543.334C346.068 543.011 338.256 541.06 332.184 537.791C327.929 535.5 323.201 533.866 318.467 532.072C310.185 528.934 306.539 526.358 302.613 524.555C298.688 522.428 295.747 521.447 293.792 520.634C292.807 520.144 291.837 519.497 289.857 517.85" stroke="#660033" stroke-width="15" stroke-linecap="round"/>
<path d="M284.956 510.009C286.573 512.607 291.797 516.537 296.698 518.169C302.396 520.067 307.147 523.065 311.405 524.707C315.372 526.236 320.535 528.299 325.127 529.769C329.38 531.13 333.611 533.2 337.869 534.67C341.795 536.797 344.735 538.1 346.691 539.404C347.676 540.061 348.646 540.708 349.646 542.354" stroke="#660033" stroke-width="15" stroke-linecap="round"/>
<path d="M374.149 439.438C373.503 441.712 370.895 448.221 368.278 453.631C365.145 460.11 363.701 466.197 362.393 471.112C360.923 476.634 360.427 481.879 359.614 487.608C358.805 493.301 358.467 519.889 359.281 535.802C359.43 538.729 359.771 541.364 359.452 542.996C357.193 543.981 352.616 543.344 347.558 541.712C345.411 541.051 344.118 540.727 342.785 540.394" stroke="#660033" stroke-width="15" stroke-linecap="round"/>
<path d="M308.479 402.193C311.067 404.133 313.37 406.75 316.458 410.98C321.81 417.15 326.112 422.109 327.906 424.555C328.729 425.707 329.376 426.677 331.023 427.677" stroke="#660033" stroke-width="15" stroke-linecap="round"/>
<path d="M300.638 447.28C302.589 450.867 306.5 453.474 311.239 457.88C315.007 461.972 317.291 464.266 319.085 465.241C319.908 465.893 320.555 466.863 321.222 467.863" stroke="#660033" stroke-width="12" stroke-linecap="round"/>
<path d="M297.698 473.744C298.992 475.684 300.305 477.654 302.903 480.742C308.088 486.094 312.067 490.396 313.694 492.514C314.674 493.66 315.968 494.954 318.281 497.267" stroke="#660033" stroke-width="12" stroke-linecap="round"/>
<path d="M323.182 267.912C326.416 269.853 329.376 271.5 331.984 272.965C333.297 273.783 334.591 274.754 335.904 275.739C337.218 276.724 338.511 277.694 339.844 278.694" stroke="#660033" stroke-width="12" stroke-linecap="round"/>
<path d="M322.202 240.468C323.819 241.438 325.436 242.409 326.754 243.07C328.073 243.732 329.043 244.055 332.003 246.349" stroke="#660033" stroke-width="12" stroke-linecap="round"/>
<path d="M112.45 263.011C114.4 263.658 117.664 266.912 121.742 270.024C127.502 274.421 139.149 274.773 146.579 272.661C151.078 271.382 150.676 263.374 151.161 258.63C151.679 253.564 160.457 266.912 163.569 271.328C166.059 274.86 171.239 276.067 175.165 277.709C177.066 278.504 182.648 278.694 189.994 278.532C193.813 278.448 196.076 276.42 198.198 273.974C199.78 272.151 199.683 267.295 200.168 262.389C200.54 258.63 207.505 267.893 212.244 272.47C215.872 275.975 220.247 277.38 224.981 278.527C229.242 279.559 232.998 278.37 234.792 277.395C238.553 275.35 240.516 271.852 242.638 267.927C244.632 264.238 245.417 261.061 246.882 259.753C249.846 257.106 253.905 264.952 258.311 268.878C262.226 272.366 266.314 273.46 270.239 274.768C274.457 276.174 287.465 276.734 295.723 274.945C299.325 272.823 302.579 268.912 304.392 264.825C304.559 263.678 304.559 262.384 305.539 261.051" stroke="#660033" stroke-width="12" stroke-linecap="round"/>
<path d="M113.43 302.217C114.4 305.472 122.839 314.567 130.558 321.149C137.296 326.895 143.128 328.662 149.342 330.475C153.711 331.75 158.174 329.995 161.109 328.53C166.182 325.997 167.652 319.88 169.293 315.793C170.235 313.448 170.278 309.108 170.602 305.182C170.827 302.444 175.16 311.019 178.271 315.597C181.331 320.096 187.568 322.467 192.797 325.241C194.58 326.187 197.664 325.741 199.487 325.094C204.845 323.193 205.23 316.292 205.887 304.869C206.155 300.214 216.973 315.253 221.393 318.218C226.552 321.678 231.675 325.075 236.747 326.231C241.125 327.229 243.77 319.88 245.745 315.954C246.671 314.113 246.73 310.735 247.215 307.628C247.365 306.667 248.671 307.432 249.494 308.25C253.276 312.01 258.139 316.9 263.696 320.664C269.835 324.821 277.722 324.761 282.981 322.972C287.069 321.582 292.758 315.979 296.708 311.054C299.325 307.128 301.285 304.188 302.427 302.232C302.922 301.247 303.245 300.277 305.539 297.317" stroke="#660033" stroke-width="12" stroke-linecap="round"/>
<path d="M114.41 320.84C114.41 332.23 115.057 344.011 115.714 350.544C116.688 360.239 120.604 367.868 122.408 373.906C124.628 381.339 127.466 386.491 130.083 390.416C131.386 392.372 133.023 394.018 136.596 394.998C143.168 396.802 149.029 394.685 151.636 393.219C157.027 390.19 159.164 385.55 162.099 379.184C164.076 374.897 165.044 370.848 165.701 365.452C166.218 361.202 172.866 374.729 177.125 378.654C181.042 382.265 185.608 384.864 189.867 387.481C190.875 388.101 191.822 388.784 192.807 388.956C194.739 389.292 196.733 387.824 198.526 386.197C202.494 382.597 203.27 377.062 205.392 371.828C205.92 370.527 206.211 369.221 206.539 369.039C209.733 367.275 209.798 379.61 211.44 385.511C212.776 390.315 217.953 393.352 223.025 396.14C225.018 397.236 227.764 397.292 230.861 396.969C236.538 396.376 239.849 391.097 243.123 387.02C247.815 381.176 247.71 375.111 247.872 370.529C248.023 366.262 252.278 379.63 255.86 384.692C258.319 388.167 261.746 390.421 264.353 392.215C270.777 396.634 281.663 393.058 285.921 391.093C289.847 386.53 292.464 380.649 294.748 375.91C295.404 374.758 296.051 373.788 296.718 370.828" stroke="#660033" stroke-width="12" stroke-linecap="round"/>
<path d="M140.874 443.359C151.244 444.339 170.906 443.692 177.443 440.433C182.886 437.72 183.667 429.657 186.113 421.982C186.472 420.856 187.902 422.423 188.563 423.898C191.839 431.201 194.763 440.066 199.502 444.001C202.894 446.818 221.089 446.299 231.852 444.187C236.441 443.286 236.595 436.518 238.066 432.43C238.488 431.257 239.203 429.99 240.021 429.647C240.839 429.304 241.81 429.951 242.633 430.931C245.976 434.91 247.044 439.419 249.984 443.183C253.282 447.404 258.472 447.927 271.347 448.098C277.288 448.177 281.016 444.672 285.265 441.903C290.827 436.508 293.121 433.244 293.772 430.798C294.101 429.647 294.424 428.676 294.757 427.677" stroke="#660033" stroke-width="12" stroke-linecap="round"/>
<path d="M156.556 490.406C163.731 493.013 170.239 494.327 178.247 495.14C184.87 495.813 189.872 494.983 191.504 493.685C195.792 490.272 195.096 481.957 195.924 473.925C196.335 469.939 199.35 481.565 203.584 486.466C207.836 491.387 213.052 492.033 223.819 492.205C229.277 492.292 232.342 487.485 235.934 483.722C239.052 480.454 240.516 477.674 241.82 477.174C247.281 475.08 245.417 487.113 247.049 491.372C247.958 493.744 250.641 494.974 252.758 496.116C258.728 499.336 267.941 495.973 274.963 494.17C276.772 493.68 278.389 493.033 280.516 492.538C282.643 492.043 285.23 491.72 290.837 491.386" stroke="#660033" stroke-width="12" stroke-linecap="round"/>
<path d="M162.437 530.592C166.966 535.767 170.269 538.757 172.386 539.57C181.5 543.073 200.271 539.433 207.181 534.533C211.724 531.311 210.465 525.064 211.44 520.806C211.9 518.796 212.748 516.88 213.562 516.057C217.406 512.166 220.893 526.652 226.289 530.416C233.075 535.149 247.318 530.612 254.875 527.662C258.453 526.358 261.423 525.045 263.54 523.903C264.686 523.408 265.98 523.084 267.313 522.751" stroke="#660033" stroke-width="12" stroke-linecap="round"/>
<path d="M178.12 576.659C169.308 586.775 166.044 591.342 162.775 595.268C159.966 598.641 157.556 603.751 153.954 608.01C151.119 611.361 150.352 614.875 150.347 616.022C150.329 620.178 159.144 610.004 163.403 605.427C166.885 601.685 171.886 597.595 175.331 593.337C178.443 589.411 179.747 586.147 180.889 583.702C181.384 582.55 181.707 581.58 182.04 579.6" stroke="#660033" stroke-width="12" stroke-linecap="round"/>
<path d="M206.544 559.017C206.544 560.31 206.544 561.604 206.382 562.918C206.221 564.231 205.897 565.525 205.731 568.617C205.564 571.71 205.564 576.561 206.544 581.56" stroke="#660033" stroke-width="12" stroke-linecap="round"/>
<path d="M206.544 582.54C207.191 582.54 208.494 582.217 210.288 581.242C212.748 577.649 213.405 572.445 213.082 567.059C212.758 564.907 212.111 563.937 211.445 559.997" stroke="#660033" stroke-width="12" stroke-linecap="round"/>
<path d="M244.77 571.759C247.377 577.63 249.984 581.54 251.788 585.466C253.72 589.671 256.199 593.302 258.321 597.228C259.139 599.183 260.443 600.506 262.075 601.482C262.736 602.133 263.06 603.104 264.373 604.103" stroke="#660033" stroke-width="12" stroke-linecap="round"/>
<path d="M246.73 571.759C248.681 572.405 252.592 575.013 255.703 578.443C258.658 581.7 261.413 584.814 264.201 588.406C266.849 591.817 267.96 596.243 270.082 600.168C270.607 601.138 270.901 602.124 270.582 602.785C270.264 603.447 269.293 603.77 268.146 603.452C267 603.133 265.706 602.163 264.393 601.016C263.079 599.869 261.785 598.575 260.452 597.242" stroke="#660033" stroke-width="12" stroke-linecap="round"/>
</svg>
