<svg width="445" height="837" viewBox="0 0 445 837" fill="none" xmlns="http://www.w3.org/2000/svg">
<path d="M177.439 102.21C176.429 103.903 173.705 107.291 171.328 111.545C168.633 116.369 165.543 119.534 162.998 123.62C160.127 128.228 156.708 131.777 153.984 135.863C151.152 140.111 147.526 144.02 144.97 148.106C142.507 152.044 140.037 156.263 137.66 160.349C135.28 164.439 133.916 168.506 132.553 172.592C131.191 176.678 129.161 182.095 127.452 186.875C125.894 191.233 124.733 196.053 123.371 200.139C122.009 204.225 120.652 208.296 119.29 213.228C118.014 217.849 116.571 222.579 115.209 226.665C114.184 232.771 113.847 239.934 113.337 243.484C113.164 246.025 113.164 250.065 113.164 254.227" stroke="#660033" stroke-width="8" stroke-linecap="round"/>
<path d="M113.164 254.227C115.194 254.901 119.265 258.288 123.351 260.512C127.582 262.815 131.508 266.45 135.594 268.506C139.547 270.495 144.424 271.572 148.857 272.587C153.283 273.6 158.034 274.285 162.289 275.647C169.304 277.894 178.439 275.326 182.525 272.602C186.612 269.878 190.682 267.837 195.273 266.644C201.704 264.972 205.986 268.837 210.072 270.715C214.449 272.725 218.229 275.306 222.315 277.515C223.341 278.03 224.351 278.366 225.376 278.877C226.401 279.387 227.411 280.06 230.493 280.754" stroke="#660033" stroke-width="8" stroke-linecap="round"/>
<path d="M212.128 239.944C214.158 240.617 218.229 242.658 223.667 243.851C230.343 245.317 234.553 245.718 250.495 245.897C257.116 245.971 261.08 243.351 265.166 241.143C269.006 239.067 273.323 237.577 277.409 234.853C282.836 231.235 287.953 224.66 290.509 220.574C292.824 216.873 293.401 212.417 293.412 206.638C293.414 205.225 292.402 204.255 291.55 203.398C290.698 202.541 289.688 201.868 288.831 202.026C284.786 202.773 284.913 209.316 283.719 213.57C282.378 218.35 281.179 222.579 278.455 226.665C275.623 230.913 271.323 234.149 267.069 236.704C262.359 239.533 256.366 239.597 246.006 240.112C236.329 240.964 224.381 240.627 222.346 239.949C221.321 239.607 220.311 239.27 217.229 237.903" stroke="#660033" stroke-width="8" stroke-linecap="round"/>
<path d="M273.343 226.68C276.394 224.987 280.465 222.273 283.704 218.534C285.51 216.449 287.28 214.448 288.469 212.412C291.44 207.324 289.331 200.164 288.484 199.139C287.3 200.134 286.27 202.184 285.591 204.388C285.25 205.582 284.913 206.928 284.566 210.356" stroke="#660033" stroke-width="8" stroke-linecap="round"/>
<path d="M163.156 162.405C161.463 163.751 158.075 169.852 157.203 184.794C156.837 191.064 159.749 195.032 164.834 200.644C168.524 204.714 173.338 205.929 177.424 207.291C186.781 210.41 202.926 206.969 207.012 204.924C212.173 202.34 213.822 196.093 216.031 192.007C218.257 187.889 218.25 177.443 213.511 169.057C210.808 164.274 204.334 163.098 199.901 160.543C196.119 158.362 191.744 157.65 185.117 157.135C182.52 156.933 178.491 156.283 173.394 156.62C167.901 156.983 165.89 163.404 164.182 167.491C163.84 168.516 163.503 169.526 163.161 170.72C162.819 171.913 162.483 173.26 162.136 177.708" stroke="#660033" stroke-width="8" stroke-linecap="round"/>
<path d="M162.136 177.708C162.136 180.075 162.809 183.82 164.334 185.518C167.187 188.695 172.318 189.258 178.429 190.798C180.74 191.381 184.173 190.972 185.908 189.288C187.642 187.605 187.642 184.238 187.137 182.167C186.394 179.121 183.571 178.055 181.368 177.203C180.242 176.768 178.827 177.362 177.797 178.04C175.793 179.359 175.062 181.779 174.552 183.983C174.28 185.158 174.379 186.523 175.052 187.554C175.726 188.584 177.072 189.258 178.439 189.773C179.807 190.288 181.153 190.625 183.561 190.972" stroke="#660033" stroke-width="8" stroke-linecap="round"/>
<path d="M185.602 178.729C184.928 178.729 183.235 178.729 181.026 179.234C180.052 179.456 179.827 180.749 179.485 180.764C175.826 180.928 173.379 174.321 170.645 170.414C169.932 169.395 170.298 167.873 170.803 166.843C172.9 162.564 188.887 163.425 197.829 165.455C202.549 166.527 204.293 172.587 207.695 175.826C210.788 178.77 210.761 183.81 212.123 187.896C212.802 189.931 213.148 192.992 212.98 195.379C212.502 202.16 211.455 177.729 209.588 172.628C208.388 169.351 204.66 168.189 202.114 167.511C191.446 164.667 172.706 167.832 168.273 169.71C167.218 170.156 166.237 170.893 165.549 171.745C164.86 172.597 164.523 173.607 164.855 173.959C165.186 174.311 166.196 173.974 166.885 174.306C170.376 175.987 172.665 178.729 174.874 179.234C176.757 179.664 177.429 182.463 179.465 183.651C180.456 184.23 181.5 184.503 182.021 183.835C182.541 183.167 182.541 181.483 182.036 180.279C180.171 175.833 176.43 173.974 174.394 173.122C173.434 172.721 172.359 173.28 171.502 173.959C169.715 175.373 168.941 177.698 168.599 179.734C168.429 180.745 168.931 181.769 171.461 182.289C173.991 182.81 178.705 182.81 181.301 182.305C183.898 181.8 184.234 180.79 184.408 179.428C184.581 178.065 184.581 176.382 184.076 175.178C183.571 173.974 182.561 173.301 181.368 173.122C178.827 173.28 176.43 174.301 174.731 175.826C174.042 176.678 173.705 177.688 173.359 178.729" stroke="#660033" stroke-width="8" stroke-linecap="round"/>
<path d="M110.103 259.329C112.133 260.686 116.204 262.042 120.29 264.251C124.13 266.327 128.447 267.817 132.533 269.526C136.507 271.188 140.69 272.918 144.776 274.627C148.75 276.289 152.933 277.346 159.56 277.861C168.222 278.535 180.48 277.367 185.581 275.321C191.936 272.773 203.211 271.572 210.072 273.434C214.285 274.577 218.229 276.999 222.315 278.708C223.341 279.05 224.351 279.387 225.545 279.56C226.738 279.734 228.085 279.734 229.473 279.734" stroke="#660033" stroke-width="8" stroke-linecap="round"/>
<path d="M232.533 278.713C231.523 276.683 227.452 273.286 222.519 270.562C218.093 268.117 214.189 265.797 210.103 263.588C206.263 261.512 197.232 261.369 190.718 262.553C186.146 263.383 182.561 266.124 178.475 268.332C174.052 269.868 169.971 270.888 167.257 271.567C165.89 271.908 164.544 272.245 162.136 272.592" stroke="#660033" stroke-width="8" stroke-linecap="round"/>
<path d="M226.412 273.612C227.085 273.612 228.442 274.286 230.477 275.642C232.513 276.999 234.563 278.367 235.589 279.555C235.604 280.07 234.594 280.407 231.513 280.754" stroke="#660033" stroke-width="8" stroke-linecap="round"/>
<path d="M287.627 193.012C285.597 193.686 282.872 197.073 280.327 201.159C277.57 205.585 275.731 209.316 274.537 214.412C272.431 223.405 271.65 227.68 269.104 231.598C268.446 232.611 267.242 233.129 267.395 232.802C269.686 227.915 274.69 225.681 278.261 221.595C281.434 217.963 281.505 205.357 282.52 197.108C282.653 196.036 283.199 195.073 282.867 194.889C279.811 193.197 278.118 201.154 276.578 205.577C274.666 211.065 274.71 216.784 272.333 221.564C270.178 225.898 265.202 228.027 261.962 231.43C258.804 234.748 253.979 236.536 249.893 237.898C241.171 240.805 226.432 238.25 221.499 237.735C219.29 237.23 216.903 236.883 214.357 236.715C213.159 236.546 212.149 236.21 211.108 235.863" stroke="#660033" stroke-width="8" stroke-linecap="round"/>
<path d="M111.123 258.308C109.43 259.318 106.716 263.389 103.313 266.629C99.9954 269.787 98.2068 274.612 95.998 278.698C93.8606 282.652 92.0853 286.855 90.7233 290.941C89.1837 295.56 85.9638 300.118 84.4334 304.204C82.8034 308.557 80.8625 312.361 79.5005 316.447C78.1385 320.534 76.7815 324.604 76.0979 331.231C75.3959 338.037 73.7208 346.03 73.2055 354.35C72.8744 359.698 71.0069 364.394 69.4663 369.495C67.9812 374.413 67.5992 378.678 66.2372 382.764C64.8015 387.071 64.5385 391.941 63.3448 396.195C61.9913 401.019 60.4575 405.204 59.9423 410.984C59.4531 416.472 57.7436 422.549 56.0347 428.328C54.6282 433.085 53.3157 438.526 52.8005 446.346C52.4552 451.587 50.255 456.89 48.8929 461.492C47.3677 466.644 47.1942 471.521 45.1537 475.775C42.9979 480.27 43.1132 484.784 41.7511 489.885C40.3211 495.241 40.0524 500.088 39.5372 505.868C39.321 508.293 38.6853 512.994 39.1903 518.774C39.8672 526.52 58.0497 520.86 62.9826 520.345C67.381 519.886 71.9863 517.799 76.5877 516.606C81.3929 515.359 86.2699 514.739 90.7029 513.377C94.8201 512.112 98.8598 510.658 102.946 508.449C106.786 506.373 111.103 504.883 115.189 503.174C119.275 501.812 122.336 500.455 124.371 499.266C125.397 498.751 126.407 498.415 128.468 498.068" stroke="#660033" stroke-width="8" stroke-linecap="round"/>
<path d="M119.285 484.804C117.255 485.141 113.184 486.498 109.098 488.707C105.258 490.783 100.941 492.273 96.855 493.982C92.8814 495.643 88.698 496.701 83.5968 497.894C78.595 499.065 74.4145 499.761 70.3284 501.123C66.2423 502.485 63.1815 503.842 61.1461 505.031C60.1208 505.546 59.1107 505.883 58.0701 506.23" stroke="#660033" stroke-width="8" stroke-linecap="round"/>
<path d="M85.617 301.159C85.617 305.883 84.9436 315.422 83.7499 320.523C82.5795 325.525 81.8828 329.706 81.3676 334.807C80.8403 340.028 78.8221 343.989 77.46 348.244C75.8217 353.361 75.7613 358.273 75.2461 363.206C74.7529 367.927 73.3739 375.25 72.5271 380.892C71.7903 385.801 70.6601 389.9 69.298 393.987C67.8346 398.377 66.579 403.837 65.0487 409.285C63.5423 414.648 61.4778 418.468 60.1157 422.554C58.6523 426.944 57.3968 431.731 56.0347 435.817C54.5713 440.207 53.3158 444.994 52.1221 449.417C50.6075 455.029 50.255 459.951 49.7398 467.771C49.3945 473.013 47.8676 480.336 47.0208 486.314C46.0866 492.91 45.8271 499.047 45.9955 505.674C46.0613 508.265 46.5005 509.27 49.7041 509.79C66.0093 512.439 70.9661 509.29 75.3991 508.275C80.4663 507.115 86.6168 505.903 91.8864 504.363C97.6311 502.683 101.921 502.496 106.007 500.287C110.093 498.751 113.154 497.394 115.021 495.869C115.878 495.017 116.551 494.007 118.265 490.926" stroke="#660033" stroke-width="8" stroke-linecap="round"/>
<path d="M118.265 490.926C116.235 491.936 111.491 494.66 107.058 496.022C102.94 497.287 98.9007 498.741 93.7994 500.271C88.1666 501.961 83.5969 503.842 79.5108 505.204C75.4247 506.566 71.3539 507.923 67.2677 509.285C62.9606 510.721 58.0906 510.984 52.3108 511.499C50.9386 511.668 49.9286 512.004 48.9032 512.346C47.8778 512.688 46.8678 513.025 44.8069 514.392" stroke="#660033" stroke-width="8" stroke-linecap="round"/>
<path d="M44.8069 514.392C50.5407 514.392 62.1308 513.718 71.2977 513.203C76.5522 512.908 81.1687 510.658 88.9889 509.296C90.708 508.954 91.7181 508.617 92.7435 508.275C93.7688 507.934 94.7789 507.597 97.86 507.25" stroke="#660033" stroke-width="8" stroke-linecap="round"/>
<path d="M97.8601 507.25C90.0552 507.587 84.6172 508.944 75.7971 510.137C64.202 510.647 60.1312 512.004 56.045 513.366C55.0197 513.708 54.0096 514.045 51.9487 514.392" stroke="#660033" stroke-width="8" stroke-linecap="round"/>
<path d="M50.9282 514.392C50.9282 505.607 51.6016 491.967 53.6421 487.712C55.7979 483.217 55.6826 478.03 57.0446 472.75C58.1617 468.42 59.7636 464.42 61.294 459.487C62.7651 454.745 63.8446 450.136 65.2067 445.203C67.0772 438.429 66.9054 428.711 67.4206 419.544C67.7344 413.962 69.9661 409.326 71.1598 405.072C71.4857 403.91 71.3333 402.531 71.5016 402.511C78.2246 401.696 67.5991 420.835 67.0839 426.63C66.5901 432.184 64.5384 438.179 63.3447 444.142C62.1625 450.048 60.4574 454.176 58.927 458.263C58.1012 460.467 56.3764 462.349 54.8511 464.047C54.1192 464.862 52.9891 465.073 52.4688 464.573C52.6218 460.329 54.999 455.584 58.0445 448.642C60.0799 444.392 63.11 438.669 66.232 432.772" stroke="#660033" stroke-width="8" stroke-linecap="round"/>
<path d="M59.0903 441.954C59.0903 438.587 59.427 434.832 59.9371 431.098C60.1106 429.384 60.1106 428.038 60.6156 425.66C61.1206 423.283 62.1307 419.916 63.1713 414.407" stroke="#660033" stroke-width="8" stroke-linecap="round"/>
<path d="M84.5967 376.658C86.627 374.964 90.6978 372.923 94.7839 370.546C95.8093 369.863 96.8193 369.189 97.8447 368.337C98.87 367.486 99.8801 366.475 100.921 365.435" stroke="#660033" stroke-width="8" stroke-linecap="round"/>
<path d="M84.5967 414.407C85.6067 412.713 89.0042 409.326 92.5751 406.087C96.1459 401.837 99.8903 398.43 101.589 396.905C102.278 396.053 102.614 395.043 103.981 394.002" stroke="#660033" stroke-width="8" stroke-linecap="round"/>
<path d="M89.698 437.873C90.708 436.179 94.7789 432.792 98.865 427.691C100.9 424.977 102.951 422.579 104.986 420.712C106.012 419.855 107.022 419.182 109.083 416.448" stroke="#660033" stroke-width="8" stroke-linecap="round"/>
<path d="M88.8667 472.752C93.0715 467.244 103.549 456.756 107.475 453.326C108.442 452.481 109.43 451.856 109.607 452.008C112.442 454.449 103.589 457.717 100.477 460.652C97.4738 463.485 94.4339 466.852 92.7873 470.292C96.6981 470.145 100.609 468.185 104.858 465.416C106.166 464.274 107.784 462.657 110.43 460.01" stroke="#660033" stroke-width="8" stroke-linecap="round"/>
<path d="M92.7871 472.752C93.1106 472.429 93.434 472.106 94.571 471.292C95.708 470.478 97.6487 469.185 99.6482 467.852" stroke="#660033" stroke-width="8" stroke-linecap="round"/>
<path d="M105.529 278.683C104.226 280.3 103.569 290.052 102.755 310.714C102.201 324.799 102.589 351.331 102.751 365.48C102.946 382.606 104.549 390.361 105.363 396.448C105.994 401.175 106.509 405.749 107.485 410.008C108.408 414.042 109.45 419.785 110.263 424.872C111.023 429.625 113.037 434.174 114.346 438.594C115.742 443.313 116.958 447.249 118.105 451.336C119.393 455.928 119.898 459.991 121.045 462.461C123.32 467.361 119.251 453.816 118.766 451.694C118.552 450.758 117.311 450.542 116.487 450.861C115.664 451.179 115.017 452.15 114.684 455.075C114.351 458.001 114.351 462.853 114.351 467.852" stroke="#660033" stroke-width="8" stroke-linecap="round"/>
<path d="M305.48 414.924C305.48 418.168 304.833 424.705 303.524 428.631C302.145 432.769 300.598 441.976 298.623 448.234C297.378 452.18 296.011 456.07 294.865 460.157C293.576 464.749 293.071 468.812 291.924 473.713C290.8 478.518 290.777 483.181 289.802 487.44C288.81 491.774 287.19 496.903 286.695 503.764C286.286 509.433 284.25 513.899 283.755 518.638C283.281 523.174 281.956 530.209 280.981 535.791C279.733 542.929 279.349 550.165 278.854 556.692C278.404 562.623 277.388 567.807 276.242 573.027C275.752 583.499 275.095 597.761 276.07 607.832C276.399 608.983 276.722 609.954 279.016 611.934" stroke="#660033" stroke-width="8" stroke-linecap="round"/>
<path d="M116.311 252.219C115.331 248.641 119.859 232.42 123.981 221.692C126.215 215.877 126.759 211.072 127.254 205.519C128.21 194.803 128.72 177.747 130.351 173.336C132.893 166.469 135.894 161.418 138.844 157.159C141.787 152.911 145.049 148.342 148.479 143.603C151.381 139.594 153.223 135.6 157.296 130.048C160.536 125.631 163.338 121.878 166.45 117.953C169.562 114.027 172.16 110.117 176.085 107.166C180.074 104.168 184.902 101.942 188.989 100.139C193.745 98.0399 197.998 120.37 199.989 126.676C205.332 143.603 215.5 136.417 229.5 136.417C237.369 136.417 245.423 102.761 250 107.166C254.76 111.747 254.434 117.987 266 130.048C271.72 136.013 272.468 146.343 275.085 150.268C277.702 154.194 280.309 158.105 283.088 162.844C286.183 168.121 289.131 173.787 291.748 177.874C294.589 182.312 295.992 186.529 298.447 191.43C300.883 196.292 301.226 201.878 302.534 207.597C304.478 216.093 304.166 223.442 305.313 229.322C306.944 237.687 306.46 247.573 307.273 258.693C309.232 285.467 308.42 290.739 309.234 297.276C310.448 307.034 310.38 315.536 311.194 328.43C313.307 361.919 310.38 366.543 309.567 372.748C308.288 382.498 308.42 387.126 307.607 391.709C306.631 397.207 305.813 401.829 304.504 407.063C302.981 413.157 302.872 419.805 302.378 424.544C301.936 428.769 300.579 437.075 298.952 446.911C297.923 453.132 296.658 458.344 295.845 463.098C294.986 468.116 294.698 474.673 293.885 479.76C293.131 484.47 292.738 489.709 291.762 494.301C290.903 498.348 289.15 502.137 287.842 507.038C286.45 512.25 284.583 517.486 282.941 522.069C281.014 527.448 280.329 532.189 279.021 536.447C277.715 540.697 276.408 545.264 275.262 549.513C273.807 554.904 274.115 560.28 273.301 571.017C270.631 606.266 275.409 610.934 279.001 618.275C281.781 623.958 284.23 627.596 286.195 631.522C288.392 635.91 291.091 639.358 293.546 643.284C295.77 646.839 296.972 651.12 298.614 655.046C300.254 658.968 302.853 663.529 305.47 667.787C308.175 672.19 312.321 676.604 317.06 684.435C320.829 688.376 322.789 692.286 326.048 697.025C327.033 698.177 328.004 699.147 329.983 700.147" stroke="#660033" stroke-width="15" stroke-linecap="round"/>
<path d="M330.963 700.147C331.287 702.098 333.237 706.008 335.203 709.772C337.29 713.77 341.725 716.79 345.489 719.902C349.094 722.883 351.527 726.925 354.315 730.517C354.81 731.502 355.134 732.472 355.462 733.457C355.791 734.443 356.114 735.413 356.447 737.393" stroke="#660033" stroke-width="15" stroke-linecap="round"/>
<path d="M356.447 737.393C352.88 737.393 345.038 736.746 339.804 735.437C334.638 734.146 330.003 733.805 326.078 732.497C322.152 731.188 317.594 729.885 313.174 728.576C308.455 727.18 304.519 725.317 300.432 723.676C295.865 721.841 291.777 721.063 287.69 719.593C282.798 717.833 279.035 716.163 274.948 713.879C270.348 711.309 265.646 710.282 261.388 708.16C257.634 706.29 253.551 704.734 249.626 702.117C245.843 699.595 242.436 697.226 238.682 694.928C233.436 691.716 230.028 687.738 227.729 684.641C225.042 681.019 221.206 677.623 218.418 673.698C217.923 672.713 217.599 671.742 217.271 670.757C216.943 669.772 216.619 668.802 215.306 667.802" stroke="#660033" stroke-width="15" stroke-linecap="round"/>
<path d="M256.472 703.088C251.581 699.824 247.67 697.873 243.907 694.281C240.465 690.997 237.536 687.425 234.757 683.661C232.145 680.123 228.401 675.996 225.117 671.737C222.341 668.137 220.226 664.548 217.114 661.118C216.334 660.258 215.325 659.647 214.34 659.476C213.355 659.304 212.385 659.628 211.562 660.28C207.999 663.1 206.818 667.783 205.348 671.708C203.724 676.042 199.643 679.544 194.742 684.283C190.292 688.586 185.921 690.659 181.995 692.301C178.178 693.898 174.159 694.913 170.234 696.222C166.308 697.53 162.397 698.834 158.31 701.117C153.438 703.84 149.655 707.322 147.519 710.914C145.195 714.821 142.128 717.77 138.707 720.23C133.791 723.766 130.052 725.945 126.127 727.586C122.31 729.183 118.291 730.198 114.203 731.507C109.517 733.007 105.225 733.472 101.795 732.34C95.3827 730.224 102.902 721.73 105.519 716.829C108.276 711.667 110.743 707.028 112.385 702.941C114.255 698.285 115.977 693.639 117.448 689.218C119.088 684.285 120.878 680.564 123 676.638C124.994 672.949 126.426 668.802 128.881 664.063C130.937 660.094 132.64 656.06 135.576 649.532C137.829 644.521 138.521 640.378 139.829 636.452C141.138 632.527 142.442 627.322 143.75 622.73C144.968 618.454 146.362 613.914 147.671 609.175C148.979 605.082 150.283 600.525 151.591 596.266C151.92 595.281 152.243 594.311 152.576 593.311" stroke="#660033" stroke-width="15" stroke-linecap="round"/>
<path d="M152.576 593.311C152.9 591.36 154.203 587.449 155.35 583.362C156.726 578.46 156.497 562.73 154.87 552.978C154.082 548.254 152.91 544.323 150.788 540.397C148.793 536.708 147.362 532.561 145.72 528.636C144.08 524.714 141.481 520.799 139.839 516.874C138.243 513.056 137.227 509.037 135.919 505.112C134.61 501.186 132.66 497.276 131.018 493.35C129.326 489.304 126.446 485.514 124.485 481.427C123.829 476.683 122.525 472.772 121.216 467.871C120.888 466.558 120.565 465.264 120.231 461.971" stroke="#660033" stroke-width="15" stroke-linecap="round"/>
<path d="M314.301 255.159C315.271 256.786 318.535 260.04 321.966 262.339C325.712 264.849 328.984 268.215 332.747 270.993C336.474 273.745 339.118 277.683 343.034 281.118C349.203 286.531 353.487 290.758 358.388 295.164C363.142 299.437 367.209 302.52 371.135 305.137C375.06 308.077 378.971 311.341 382.083 314.772C382.902 315.595 383.872 316.242 384.872 317.889" stroke="#660033" stroke-width="15" stroke-linecap="round"/>
<path d="M384.872 317.889C383.255 320.486 378.677 325.71 372.644 333.542C368.615 338.772 362.681 342.706 354.845 349.553C348.819 354.817 342.431 358.702 335.237 363.774C329.346 368.19 323.475 373.404 320.353 377.663C319.858 378.648 319.535 379.619 317.241 382.579" stroke="#660033" stroke-width="15" stroke-linecap="round"/>
<path d="M308.42 417.864C310.704 421.775 313.301 425.686 318.04 432.213C321.834 437.439 325.063 441.368 328.822 445.94C335.071 453.542 338.785 457.05 342.872 460.324C348.017 464.445 351.527 468.165 355.938 472.243C359.348 475.654 362.642 478.947 365.087 481.392C366.239 482.544 367.209 483.514 369.189 485.494" stroke="#660033" stroke-width="15" stroke-linecap="round"/>
<path d="M369.189 485.494C367.886 493.326 365.935 497.237 363.318 504.578C360.902 511.357 358.094 519.114 355.967 526.46C351.785 540.905 351.547 546.891 349.92 552.12C347.191 560.888 348.606 567.788 347.793 574.169C347.626 580.49 347.303 585.46 346.813 588.386C346.646 590.341 346.646 593.252 345.666 596.251" stroke="#660033" stroke-width="15" stroke-linecap="round"/>
<path d="M345.666 596.251C343.069 595.928 335.257 593.977 329.185 590.708C324.929 588.417 320.202 586.783 315.467 584.989C307.185 581.851 303.539 579.275 299.614 577.472C295.688 575.345 292.748 574.364 290.792 573.551C289.807 573.061 288.837 572.414 286.857 570.767" stroke="#660033" stroke-width="15" stroke-linecap="round"/>
<path d="M281.956 562.926C283.573 565.524 288.797 569.454 293.698 571.086C299.396 572.983 304.147 575.982 308.405 577.623C312.372 579.153 317.535 581.216 322.127 582.686C326.38 584.047 330.611 586.116 334.869 587.587C338.795 589.714 341.735 591.017 343.691 592.321C344.676 592.978 345.646 593.624 346.646 595.271" stroke="#660033" stroke-width="15" stroke-linecap="round"/>
<path d="M371.15 492.355C370.503 494.629 367.896 501.137 365.279 506.548C362.145 513.027 360.701 519.113 359.393 524.029C357.923 529.551 357.428 534.796 356.614 540.525C355.806 546.218 355.467 572.806 356.281 588.719C356.43 591.645 356.771 594.281 356.452 595.913C354.193 596.898 349.616 596.261 344.558 594.629C342.412 593.967 341.118 593.644 339.785 593.311" stroke="#660033" stroke-width="15" stroke-linecap="round"/>
<path d="M305.479 455.11C308.067 457.05 310.37 459.667 313.458 463.897C318.81 470.067 323.112 475.026 324.906 477.472C325.729 478.624 326.376 479.594 328.023 480.594" stroke="#660033" stroke-width="15" stroke-linecap="round"/>
<path d="M297.638 500.197C299.589 503.784 303.5 506.391 308.239 510.797C312.007 514.889 314.291 517.183 316.085 518.158C316.908 518.81 317.555 519.78 318.222 520.78" stroke="#660033" stroke-width="12" stroke-linecap="round"/>
<path d="M294.698 526.661C295.992 528.601 297.305 530.571 299.903 533.659C305.088 539.011 309.067 543.313 310.694 545.431C311.674 546.577 312.968 547.871 315.281 550.184" stroke="#660033" stroke-width="12" stroke-linecap="round"/>
<path d="M320.182 320.829C323.416 322.77 326.376 324.417 328.984 325.882C330.297 326.7 331.591 327.671 332.904 328.656C334.218 329.641 335.511 330.611 336.844 331.611" stroke="#660033" stroke-width="12" stroke-linecap="round"/>
<path d="M319.202 293.385C320.819 294.355 322.436 295.326 323.754 295.987C325.073 296.649 326.043 296.972 329.003 299.266" stroke="#660033" stroke-width="12" stroke-linecap="round"/>
<path d="M109.45 315.928C111.4 316.575 114.664 319.829 118.742 322.941C124.502 327.338 136.149 327.69 143.579 325.578C148.078 324.299 147.676 316.291 148.161 311.547C148.679 306.481 157.457 319.829 160.569 324.245C163.059 327.777 168.239 328.984 172.165 330.626C174.066 331.421 179.648 331.611 186.994 331.449C190.813 331.365 193.076 329.337 195.198 326.891C196.78 325.068 196.683 320.212 197.168 315.306C197.54 311.547 204.505 320.81 209.244 325.387C212.872 328.892 217.247 330.297 221.981 331.444C226.242 332.476 229.998 331.287 231.792 330.312C235.553 328.267 237.516 324.769 239.638 320.844C241.632 317.155 242.417 313.978 243.882 312.669C246.846 310.023 250.905 317.869 255.311 321.795C259.226 325.283 263.314 326.377 267.239 327.685C271.457 329.091 284.465 329.651 292.723 327.862C296.325 325.74 299.579 321.829 301.392 317.742C301.559 316.595 301.559 315.301 302.539 313.968" stroke="#660033" stroke-width="12" stroke-linecap="round"/>
<path d="M110.43 355.134C111.4 358.388 119.839 367.484 127.558 374.066C134.296 379.812 140.128 381.579 146.343 383.392C150.711 384.667 155.174 382.912 158.109 381.447C163.183 378.914 164.652 372.797 166.294 368.709C167.235 366.365 167.279 362.025 167.602 358.099C167.828 355.36 172.16 363.936 175.272 368.513C178.331 373.013 184.568 375.384 189.798 378.158C191.58 379.104 194.664 378.658 196.487 378.011C201.845 376.11 202.231 369.209 202.887 357.786C203.155 353.131 213.973 368.17 218.393 371.135C223.552 374.595 228.675 377.991 233.747 379.148C238.125 380.146 240.77 372.797 242.745 368.871C243.672 367.03 243.73 363.652 244.215 360.545C244.365 359.584 245.671 360.349 246.494 361.167C250.276 364.926 255.139 369.817 260.697 373.581C266.835 377.738 274.723 377.678 279.981 375.889C284.069 374.498 289.758 368.896 293.708 363.97C296.325 360.045 298.285 357.104 299.427 355.149C299.922 354.164 300.246 353.194 302.539 350.234" stroke="#660033" stroke-width="12" stroke-linecap="round"/>
<path d="M111.41 373.757C111.41 385.147 112.057 396.928 112.714 403.461C113.688 413.156 117.605 420.785 119.408 426.823C121.629 434.256 124.466 439.408 127.083 443.333C128.386 445.289 130.023 446.935 133.596 447.915C140.168 449.719 146.029 447.602 148.636 446.136C154.027 443.107 156.164 438.467 159.099 432.101C161.076 427.814 162.045 423.765 162.701 418.369C163.219 414.119 169.866 427.646 174.125 431.571C178.042 435.182 182.608 437.781 186.867 440.398C187.876 441.018 188.822 441.701 189.807 441.873C191.74 442.209 193.733 440.741 195.527 439.114C199.495 435.514 200.271 429.979 202.393 424.745C202.92 423.444 203.211 422.138 203.539 421.956C206.733 420.192 206.798 432.527 208.44 438.428C209.777 443.232 214.953 446.269 220.025 449.057C222.018 450.153 224.764 450.209 227.862 449.886C233.538 449.293 236.85 444.014 240.123 439.937C244.815 434.093 244.71 428.028 244.872 423.446C245.023 419.179 249.278 432.547 252.86 437.609C255.32 441.084 258.746 443.338 261.353 445.132C267.777 449.551 278.663 445.975 282.922 444.01C286.847 439.447 289.464 433.566 291.748 428.827C292.405 427.675 293.051 426.705 293.718 423.745" stroke="#660033" stroke-width="12" stroke-linecap="round"/>
<path d="M137.874 496.276C148.244 497.256 167.906 496.609 174.443 493.35C179.886 490.637 180.667 482.574 183.113 474.899C183.472 473.773 184.902 475.34 185.563 476.815C188.839 484.118 191.763 492.983 196.502 496.918C199.894 499.735 218.089 499.216 228.852 497.104C233.441 496.203 233.595 489.435 235.066 485.347C235.488 484.174 236.203 482.907 237.021 482.564C237.839 482.221 238.81 482.868 239.633 483.848C242.976 487.827 244.044 492.336 246.984 496.1C250.282 500.321 255.472 500.844 268.347 501.015C274.288 501.094 278.016 497.589 282.265 494.82C287.827 489.425 290.121 486.161 290.772 483.715C291.101 482.564 291.424 481.593 291.757 480.594" stroke="#660033" stroke-width="12" stroke-linecap="round"/>
<path d="M153.556 543.323C160.731 545.93 167.239 547.244 175.247 548.057C181.87 548.73 186.872 547.9 188.504 546.602C192.792 543.189 192.096 534.874 192.924 526.842C193.335 522.856 196.35 534.482 200.584 539.383C204.836 544.304 210.052 544.95 220.819 545.122C226.277 545.209 229.342 540.402 232.934 536.639C236.052 533.371 237.516 530.591 238.82 530.091C244.281 527.997 242.417 540.03 244.049 544.289C244.958 546.661 247.641 547.891 249.758 549.033C255.728 552.253 264.941 548.89 271.963 547.087C273.772 546.597 275.389 545.95 277.516 545.455C279.643 544.96 282.23 544.637 287.837 544.303" stroke="#660033" stroke-width="12" stroke-linecap="round"/>
<path d="M159.438 583.509C163.966 588.684 167.269 591.674 169.386 592.487C178.5 595.99 197.271 592.35 204.181 587.449C208.724 584.228 207.465 577.981 208.44 573.723C208.9 571.713 209.749 569.797 210.562 568.974C214.407 565.083 217.894 579.569 223.289 583.333C230.075 588.066 244.318 583.529 251.875 580.579C255.453 579.275 258.423 577.962 260.54 576.82C261.687 576.325 262.98 576.001 264.313 575.668" stroke="#660033" stroke-width="12" stroke-linecap="round"/>
<path d="M175.12 629.576C166.308 639.691 163.044 644.259 159.775 648.184C156.966 651.558 154.556 656.668 150.954 660.926C148.119 664.278 147.352 667.792 147.347 668.939C147.329 673.095 156.144 662.921 160.403 658.344C163.885 654.601 168.886 650.512 172.331 646.254C175.443 642.328 176.747 639.064 177.889 636.619C178.384 635.467 178.707 634.497 179.04 632.517" stroke="#660033" stroke-width="12" stroke-linecap="round"/>
<path d="M203.544 611.934C203.544 613.227 203.544 614.521 203.382 615.835C203.221 617.148 202.897 618.442 202.731 621.534C202.564 624.627 202.564 629.478 203.544 634.477" stroke="#660033" stroke-width="12" stroke-linecap="round"/>
<path d="M203.544 635.457C204.191 635.457 205.494 635.134 207.288 634.159C209.748 630.566 210.405 625.362 210.082 619.976C209.758 617.824 209.111 616.854 208.445 612.914" stroke="#660033" stroke-width="12" stroke-linecap="round"/>
<path d="M241.77 624.676C244.377 630.547 246.984 634.457 248.788 638.383C250.72 642.588 253.199 646.219 255.321 650.145C256.139 652.1 257.443 653.423 259.075 654.399C259.736 655.05 260.06 656.021 261.373 657.02" stroke="#660033" stroke-width="12" stroke-linecap="round"/>
<path d="M243.73 624.676C245.681 625.322 249.592 627.93 252.703 631.36C255.658 634.617 258.413 637.731 261.201 641.323C263.849 644.734 264.96 649.16 267.082 653.085C267.607 654.055 267.901 655.041 267.582 655.702C267.264 656.364 266.293 656.687 265.146 656.369C264 656.05 262.706 655.08 261.393 653.933C260.079 652.786 258.785 651.492 257.452 650.159" stroke="#660033" stroke-width="12" stroke-linecap="round"/>
</svg>
